<svg width="506" height="89" viewBox="0 0 506 89" fill="none" xmlns="http://www.w3.org/2000/svg">
<path d="M21 16.1549V22.5952C21 24.2449 19.6103 25.5 18 25.5C17.4477 25.5 17 25.0523 17 24.5C17 23.9477 17.4477 23.5 18 23.5C18.5988 23.5 19 23.0495 19 22.5952V16.1549H18C17.8217 16.1549 17.6427 16.0918 17.4994 15.9634C17.191 15.6869 17.165 15.2128 17.4415 14.9043L18.4415 13.7885C18.6529 13.5526 18.887 13.2913 19.0808 13.1263C19.2962 12.9429 19.5971 12.7501 20 12.7501C20.4029 12.7501 20.7038 12.9429 20.9192 13.1263C21.113 13.2913 21.3471 13.5526 21.5585 13.7885L22.5585 14.9043C22.835 15.2128 22.809 15.6869 22.5006 15.9634C22.3573 16.0918 22.1783 16.1549 22 16.1549H21Z" fill="#FF6243"/>
<path opacity="0.4" d="M12.9553 14.25L13 14.25L13.0448 14.25C13.4776 14.25 13.8744 14.2499 14.1972 14.2933C14.5527 14.3411 14.9284 14.4536 15.2374 14.7626C15.5465 15.0716 15.6589 15.4473 15.7067 15.8028C15.7501 16.1256 15.7501 16.5224 15.75 16.9553V17V17.0448C15.7501 17.4776 15.7501 17.8744 15.7067 18.1972C15.6589 18.5527 15.5465 18.9284 15.2374 19.2374C14.9284 19.5465 14.5527 19.6589 14.1972 19.7067C13.8744 19.7501 13.4776 19.7501 13.0448 19.75H13H12.9553C12.5224 19.7501 12.1256 19.7501 11.8028 19.7067C11.4473 19.6589 11.0716 19.5465 10.7626 19.2374C10.4535 18.9284 10.3411 18.5527 10.2933 18.1972C10.2499 17.8744 10.25 17.4776 10.25 17.0448V17V16.9553C10.25 16.5224 10.2499 16.1256 10.2933 15.8028C10.3411 15.4473 10.4535 15.0716 10.7626 14.7626C11.0716 14.4536 11.4473 14.3411 11.8028 14.2933C12.1256 14.2499 12.5224 14.25 12.9553 14.25Z" fill="#FF6243"/>
<path opacity="0.4" d="M12.9553 21.75H13H13.0448C13.4776 21.75 13.8744 21.7499 14.1972 21.7933C14.5527 21.8411 14.9284 21.9535 15.2374 22.2626C15.5465 22.5716 15.6589 22.9473 15.7067 23.3028C15.7501 23.6256 15.7501 24.0224 15.75 24.4553V24.5V24.5448C15.7501 24.9776 15.7501 25.3744 15.7067 25.6972C15.6589 26.0527 15.5465 26.4284 15.2374 26.7374C14.9284 27.0465 14.5527 27.1589 14.1972 27.2067C13.8744 27.2501 13.4776 27.2501 13.0448 27.25H13H12.9553C12.5224 27.2501 12.1256 27.2501 11.8028 27.2067C11.4473 27.1589 11.0716 27.0465 10.7626 26.7374C10.4535 26.4284 10.3411 26.0527 10.2933 25.6972C10.2499 25.3744 10.25 24.9776 10.25 24.5448V24.5V24.4553C10.25 24.0224 10.2499 23.6256 10.2933 23.3028C10.3411 22.9473 10.4535 22.5716 10.7626 22.2626C11.0716 21.9535 11.4473 21.8411 11.8028 21.7933C12.1256 21.7499 12.5224 21.75 12.9553 21.75Z" fill="#FF6243"/>
<path opacity="0.4" d="M2.59166 6.02949C3.00042 5.82916 3.47599 5.75 4 5.75H7C7.52401 5.75 7.99958 5.82916 8.40834 6.02949C8.83238 6.2373 9.13747 6.55266 9.34295 6.93918C9.71797 7.64465 9.75 8.58743 9.75 9.5C9.75 10.4126 9.71797 11.3554 9.34295 12.0608C9.13747 12.4473 8.83238 12.7627 8.40834 12.9705C7.99958 13.1708 7.52401 13.25 7 13.25H4C3.47599 13.25 3.00042 13.1708 2.59166 12.9705C2.16762 12.7627 1.86253 12.4473 1.65705 12.0608C1.28203 11.3554 1.25 10.4126 1.25 9.5C1.25 8.58743 1.28203 7.64465 1.65705 6.93918C1.86253 6.55266 2.16762 6.2373 2.59166 6.02949Z" fill="#FF6243"/>
<path d="M4.5 13.25V18.5706C4.49997 19.9247 4.49994 21.0413 4.61876 21.9251C4.7435 22.8529 5.01547 23.6723 5.67158 24.3284C6.28702 24.9439 7.04696 25.2219 7.90699 25.3568C8.56867 25.4606 9.35702 25.4888 10.2723 25.4968C10.2499 25.2156 10.25 24.8918 10.25 24.5448V24.4553C10.25 24.1055 10.2499 23.7792 10.2728 23.4965C9.38818 23.4883 8.73339 23.462 8.21697 23.381C7.59723 23.2838 7.29564 23.1241 7.08579 22.9142C6.86322 22.6916 6.69585 22.3646 6.60092 21.6586C6.50213 20.9237 6.5 19.9425 6.5 18.5V18H10.2725C10.2499 17.7181 10.25 17.3931 10.25 17.0448V16.9553C10.25 16.6069 10.2499 16.2819 10.2725 16H6.5V13.25H4.5Z" fill="#FF6243"/>
<path d="M45.48 21.16C44.9 22.24 44.1 23.1 43.06 23.7C42.02 24.32 40.86 24.62 39.54 24.62C38.22 24.62 37.04 24.32 36 23.7C34.96 23.1 34.16 22.24 33.6 21.16C33.02 20.08 32.74 18.86 32.74 17.5C32.74 16.14 33.02 14.92 33.6 13.84C34.16 12.76 34.96 11.92 36 11.3C37.04 10.7 38.22 10.38 39.54 10.38C40.86 10.38 42.02 10.7 43.06 11.3C44.1 11.92 44.9 12.76 45.48 13.84C46.04 14.92 46.34 16.14 46.34 17.5C46.34 18.86 46.04 20.08 45.48 21.16ZM35.66 20.14C36.02 20.92 36.54 21.52 37.22 21.96C37.9 22.4 38.66 22.6 39.54 22.6C40.4 22.6 41.16 22.4 41.84 21.96C42.52 21.52 43.04 20.92 43.42 20.14C43.78 19.36 43.98 18.48 43.98 17.5C43.98 16.54 43.78 15.66 43.42 14.88C43.04 14.1 42.52 13.5 41.84 13.06C41.16 12.62 40.4 12.4 39.54 12.4C38.66 12.4 37.9 12.62 37.22 13.06C36.54 13.5 36.02 14.1 35.66 14.88C35.28 15.66 35.1 16.54 35.1 17.5C35.1 18.48 35.28 19.36 35.66 20.14ZM56.1181 14.78C56.8381 15.2 57.4181 15.8 57.8381 16.6C58.2381 17.4 58.4581 18.32 58.4581 19.38C58.4581 20.42 58.2381 21.34 57.8381 22.14C57.4181 22.94 56.8381 23.54 56.1181 23.98C55.3781 24.42 54.5381 24.62 53.6181 24.62C52.8581 24.62 52.1981 24.48 51.6381 24.2C51.0781 23.92 50.6181 23.54 50.2981 23.06V28.5H48.1381V14.26H50.0181L50.2781 15.78C51.0981 14.7 52.2181 14.14 53.6181 14.14C54.5381 14.14 55.3781 14.36 56.1181 14.78ZM55.4181 21.84C55.9781 21.2 56.2581 20.38 56.2581 19.38C56.2581 18.38 55.9781 17.56 55.4181 16.92C54.8581 16.3 54.1381 15.98 53.2581 15.98C52.3581 15.98 51.6381 16.3 51.0981 16.92C50.5381 17.54 50.2781 18.34 50.2781 19.34C50.2781 20.38 50.5381 21.2 51.0981 21.84C51.6381 22.48 52.3581 22.8 53.2581 22.8C54.1381 22.8 54.8581 22.48 55.4181 21.84ZM62.1489 19.94C62.2089 20.78 62.5489 21.44 63.1489 21.94C63.7489 22.44 64.5489 22.68 65.5289 22.68C66.3689 22.68 67.0689 22.5 67.5889 22.14C68.1089 21.78 68.3889 21.26 68.3889 20.6C68.3889 20.14 68.2289 19.78 67.9489 19.5C67.6689 19.22 67.2689 19.02 66.7889 18.86C66.2889 18.72 65.5889 18.56 64.7089 18.4C63.7889 18.24 63.0089 18.04 62.3689 17.78C61.7289 17.52 61.1889 17.12 60.7889 16.58C60.3889 16.06 60.1889 15.36 60.1889 14.48C60.1889 13.68 60.3889 12.98 60.8089 12.34C61.2289 11.72 61.8089 11.24 62.5689 10.88C63.3289 10.54 64.1889 10.36 65.1689 10.36C66.1689 10.36 67.0489 10.56 67.8489 10.92C68.6289 11.3 69.2489 11.82 69.7089 12.46C70.1489 13.12 70.4089 13.86 70.4489 14.7H68.1889C68.1089 13.98 67.7889 13.4 67.2489 12.96C66.6889 12.52 66.0089 12.3 65.1689 12.3C64.3489 12.3 63.6889 12.48 63.2089 12.84C62.7289 13.2 62.4889 13.68 62.4889 14.32C62.4889 14.78 62.6289 15.14 62.9089 15.4C63.1889 15.68 63.5889 15.88 64.0689 16C64.5489 16.14 65.2289 16.28 66.1289 16.44C67.0289 16.6 67.8089 16.82 68.4689 17.08C69.1089 17.36 69.6489 17.74 70.0689 18.26C70.4689 18.78 70.6889 19.48 70.6889 20.32C70.6889 21.16 70.4689 21.9 70.0289 22.54C69.5889 23.2 68.9689 23.72 68.1889 24.08C67.3889 24.44 66.5089 24.62 65.5089 24.62C64.3889 24.62 63.4289 24.42 62.5889 24.02C61.7489 23.62 61.0889 23.08 60.6089 22.36C60.1289 21.64 59.8889 20.82 59.8889 19.9L62.1489 19.94ZM72.7336 16.64C73.1536 15.84 73.7336 15.24 74.4936 14.8C75.2536 14.36 76.1136 14.14 77.0936 14.14C78.0736 14.14 78.9336 14.34 79.6936 14.74C80.4536 15.14 81.0336 15.72 81.4736 16.44C81.9136 17.18 82.1336 18.04 82.1536 19.02C82.1536 19.3 82.1336 19.56 82.0936 19.84H74.3736V19.96C74.4136 20.86 74.6936 21.56 75.2136 22.08C75.7136 22.6 76.3936 22.86 77.2336 22.86C77.8936 22.86 78.4536 22.72 78.9136 22.4C79.3536 22.08 79.6536 21.64 79.8136 21.06H81.9736C81.7736 22.1 81.2736 22.96 80.4536 23.62C79.6336 24.3 78.6136 24.62 77.3936 24.62C76.3136 24.62 75.3936 24.42 74.5936 23.98C73.7936 23.54 73.1936 22.94 72.7536 22.14C72.3136 21.36 72.1136 20.44 72.1136 19.4C72.1136 18.36 72.3136 17.44 72.7336 16.64ZM79.9536 18.26C79.8536 17.52 79.5536 16.94 79.0536 16.52C78.5536 16.1 77.9336 15.88 77.1736 15.88C76.4536 15.88 75.8536 16.1 75.3336 16.54C74.8136 16.98 74.5336 17.54 74.4536 18.26H79.9536ZM91.7998 23.62C90.9598 24.3 89.8998 24.62 88.6198 24.62C87.5998 24.62 86.6998 24.42 85.9398 23.98C85.1598 23.54 84.5598 22.92 84.1398 22.12C83.7198 21.32 83.5198 20.4 83.5198 19.36C83.5198 18.32 83.7198 17.42 84.1598 16.62C84.5798 15.84 85.1798 15.24 85.9598 14.8C86.7398 14.36 87.6398 14.14 88.6798 14.14C89.9598 14.14 90.9998 14.48 91.8198 15.16C92.6198 15.84 93.1398 16.74 93.3398 17.9H91.1198C90.9598 17.32 90.6798 16.86 90.2398 16.5C89.7998 16.16 89.2598 15.98 88.6198 15.98C87.7398 15.98 87.0398 16.3 86.5198 16.92C85.9998 17.56 85.7398 18.36 85.7398 19.36C85.7398 20.38 85.9998 21.2 86.5198 21.84C87.0398 22.48 87.7398 22.78 88.6198 22.78C89.2798 22.78 89.8398 22.62 90.2798 22.26C90.7198 21.9 90.9998 21.42 91.1398 20.82H93.3398C93.1398 22.02 92.6198 22.94 91.7998 23.62ZM100.409 24.5V10.5H102.509L109.329 20.42V10.5H111.589V24.5H109.489L102.669 14.58V24.5H100.409ZM116.019 23.98C115.219 23.54 114.619 22.94 114.179 22.14C113.739 21.34 113.539 20.42 113.539 19.38C113.539 18.36 113.739 17.46 114.179 16.66C114.619 15.86 115.219 15.24 116.019 14.8C116.819 14.36 117.719 14.14 118.759 14.14C119.779 14.14 120.679 14.36 121.479 14.8C122.279 15.24 122.879 15.86 123.319 16.66C123.759 17.46 123.979 18.36 123.979 19.38C123.979 20.42 123.759 21.34 123.319 22.14C122.879 22.94 122.279 23.54 121.479 23.98C120.679 24.42 119.779 24.62 118.759 24.62C117.719 24.62 116.819 24.42 116.019 23.98ZM120.939 21.84C121.499 21.2 121.779 20.38 121.779 19.38C121.779 18.38 121.499 17.58 120.939 16.94C120.379 16.3 119.659 15.98 118.759 15.98C117.839 15.98 117.119 16.3 116.579 16.94C116.019 17.58 115.759 18.38 115.759 19.38C115.759 20.38 116.019 21.2 116.579 21.84C117.119 22.48 117.839 22.78 118.759 22.78C119.659 22.78 120.379 22.48 120.939 21.84ZM135.656 10.5V24.5H133.776L133.516 22.96C132.696 24.08 131.576 24.62 130.176 24.62C129.236 24.62 128.396 24.42 127.676 24C126.936 23.58 126.356 22.98 125.956 22.18C125.536 21.38 125.336 20.46 125.336 19.38C125.336 18.34 125.536 17.44 125.956 16.64C126.376 15.84 126.956 15.24 127.696 14.8C128.416 14.36 129.256 14.14 130.176 14.14C130.916 14.14 131.576 14.28 132.136 14.56C132.696 14.84 133.136 15.2 133.496 15.68V10.5H135.656ZM132.696 21.86C133.236 21.24 133.516 20.42 133.516 19.42C133.516 18.4 133.236 17.58 132.696 16.94C132.136 16.3 131.416 15.98 130.536 15.98C129.636 15.98 128.916 16.3 128.376 16.94C127.816 17.58 127.556 18.38 127.556 19.38C127.556 20.4 127.816 21.22 128.376 21.86C128.916 22.5 129.636 22.8 130.536 22.8C131.416 22.8 132.136 22.5 132.696 21.86ZM138.007 16.64C138.427 15.84 139.007 15.24 139.767 14.8C140.527 14.36 141.387 14.14 142.367 14.14C143.347 14.14 144.207 14.34 144.967 14.74C145.727 15.14 146.307 15.72 146.747 16.44C147.187 17.18 147.407 18.04 147.427 19.02C147.427 19.3 147.407 19.56 147.367 19.84H139.647V19.96C139.687 20.86 139.967 21.56 140.487 22.08C140.987 22.6 141.667 22.86 142.507 22.86C143.167 22.86 143.727 22.72 144.187 22.4C144.627 22.08 144.927 21.64 145.087 21.06H147.247C147.047 22.1 146.547 22.96 145.727 23.62C144.907 24.3 143.887 24.62 142.667 24.62C141.587 24.62 140.667 24.42 139.867 23.98C139.067 23.54 138.467 22.94 138.027 22.14C137.587 21.36 137.387 20.44 137.387 19.4C137.387 18.36 137.587 17.44 138.007 16.64ZM145.227 18.26C145.127 17.52 144.827 16.94 144.327 16.52C143.827 16.1 143.207 15.88 142.447 15.88C141.727 15.88 141.127 16.1 140.607 16.54C140.087 16.98 139.807 17.54 139.727 18.26H145.227ZM150.835 21.12C150.875 21.66 151.115 22.1 151.575 22.44C152.035 22.78 152.635 22.94 153.375 22.94C154.015 22.94 154.555 22.82 154.955 22.58C155.355 22.34 155.575 22 155.575 21.58C155.575 21.24 155.475 20.98 155.295 20.8C155.095 20.64 154.855 20.52 154.535 20.44C154.215 20.36 153.735 20.28 153.095 20.2C152.195 20.1 151.455 19.96 150.875 19.78C150.295 19.6 149.835 19.32 149.475 18.92C149.115 18.52 148.955 18 148.955 17.32C148.955 16.7 149.115 16.14 149.475 15.66C149.835 15.18 150.315 14.8 150.935 14.52C151.555 14.26 152.255 14.12 153.055 14.12C154.335 14.12 155.395 14.42 156.195 14.98C156.995 15.56 157.435 16.36 157.515 17.4H155.415C155.355 16.94 155.115 16.56 154.715 16.26C154.295 15.96 153.775 15.8 153.155 15.8C152.515 15.8 152.015 15.92 151.635 16.16C151.235 16.4 151.055 16.74 151.055 17.14C151.055 17.46 151.135 17.68 151.335 17.84C151.535 18 151.775 18.1 152.075 18.16C152.355 18.22 152.835 18.28 153.495 18.36C154.375 18.46 155.115 18.6 155.715 18.8C156.315 19 156.795 19.3 157.155 19.72C157.515 20.14 157.695 20.7 157.695 21.42C157.695 22.06 157.495 22.64 157.135 23.12C156.755 23.6 156.235 23.98 155.595 24.24C154.935 24.5 154.195 24.62 153.395 24.62C152.015 24.62 150.895 24.32 150.055 23.7C149.215 23.08 148.775 22.22 148.755 21.12H150.835Z" fill="white"/>
<path fill-rule="evenodd" clip-rule="evenodd" d="M208 5.75C204.824 5.75 202.25 8.32436 202.25 11.5C202.25 14.6756 204.824 17.25 208 17.25C211.176 17.25 213.75 14.6756 213.75 11.5C213.75 8.32436 211.176 5.75 208 5.75ZM210.25 10.7072C210.641 10.5689 210.845 10.1403 210.707 9.74982C210.569 9.35937 210.14 9.15495 209.75 9.29323C209.267 9.46399 208.82 9.78384 208.441 10.116C208.055 10.455 207.696 10.8457 207.395 11.2073C207.248 11.3825 207.113 11.5534 206.993 11.7119C206.905 11.6293 206.816 11.5596 206.729 11.5012L206.723 11.4977C206.565 11.3921 206.352 11.2502 206 11.2502C205.586 11.2502 205.25 11.586 205.25 12.0002C205.25 12.3749 205.525 12.6855 205.884 12.7413C205.887 12.7434 205.892 12.746 205.896 12.7492C205.952 12.7864 206.124 12.9246 206.329 13.3356C206.45 13.5774 206.692 13.7354 206.962 13.7492C207.232 13.763 207.488 13.6302 207.633 13.4021C207.796 13.1715 208.276 12.4924 208.546 12.1681C208.818 11.8422 209.122 11.5142 209.43 11.2438C209.746 10.9666 210.027 10.7864 210.25 10.7072Z" fill="#43FFD2"/>
<path opacity="0.4" d="M203.582 5.75084C201.86 7.07633 200.75 9.15854 200.75 11.5C200.75 15.5041 203.996 18.75 208 18.75C209.372 18.75 210.656 18.3686 211.75 17.7061V18.5593C211.75 20.3946 211.75 21.8527 211.587 22.9948C211.419 24.1753 211.065 25.1274 210.274 25.8737C209.49 26.6142 208.5 26.9415 207.271 27.0976C206.071 27.25 204.534 27.25 202.583 27.25H201.417C199.466 27.25 197.929 27.25 196.729 27.0976C195.5 26.9415 194.51 26.6142 193.726 25.8737C192.935 25.1274 192.581 24.1753 192.413 22.9948C192.25 21.8527 192.25 20.3946 192.25 18.5593V14.4407C192.25 12.6054 192.25 11.1473 192.413 10.0052C192.581 8.82468 192.935 7.87259 193.726 7.12631C194.51 6.38575 195.5 6.05847 196.729 5.90242C197.929 5.74998 199.466 5.74999 201.417 5.75H202.583C202.929 5.75 203.262 5.75 203.582 5.75084Z" fill="#43FFD2"/>
<path fill-rule="evenodd" clip-rule="evenodd" d="M196 17.5C196 16.9477 196.448 16.5 197 16.5H200.108C200.661 16.5 201.108 16.9477 201.108 17.5C201.108 18.0523 200.661 18.5 200.108 18.5H197C196.448 18.5 196 18.0523 196 17.5Z" fill="#43FFD2"/>
<path fill-rule="evenodd" clip-rule="evenodd" d="M196 21.5C196 20.9477 196.448 20.5 197 20.5H205C205.552 20.5 206 20.9477 206 21.5C206 22.0523 205.552 22.5 205 22.5H197C196.448 22.5 196 22.0523 196 21.5Z" fill="#43FFD2"/>
<path d="M236.48 21.16C235.9 22.24 235.1 23.1 234.06 23.7C233.02 24.32 231.86 24.62 230.54 24.62C229.22 24.62 228.04 24.32 227 23.7C225.96 23.1 225.16 22.24 224.6 21.16C224.02 20.08 223.74 18.86 223.74 17.5C223.74 16.14 224.02 14.92 224.6 13.84C225.16 12.76 225.96 11.92 227 11.3C228.04 10.7 229.22 10.38 230.54 10.38C231.86 10.38 233.02 10.7 234.06 11.3C235.1 11.92 235.9 12.76 236.48 13.84C237.04 14.92 237.34 16.14 237.34 17.5C237.34 18.86 237.04 20.08 236.48 21.16ZM226.66 20.14C227.02 20.92 227.54 21.52 228.22 21.96C228.9 22.4 229.66 22.6 230.54 22.6C231.4 22.6 232.16 22.4 232.84 21.96C233.52 21.52 234.04 20.92 234.42 20.14C234.78 19.36 234.98 18.48 234.98 17.5C234.98 16.54 234.78 15.66 234.42 14.88C234.04 14.1 233.52 13.5 232.84 13.06C232.16 12.62 231.4 12.4 230.54 12.4C229.66 12.4 228.9 12.62 228.22 13.06C227.54 13.5 227.02 14.1 226.66 14.88C226.28 15.66 226.1 16.54 226.1 17.5C226.1 18.48 226.28 19.36 226.66 20.14ZM247.118 14.78C247.838 15.2 248.418 15.8 248.838 16.6C249.238 17.4 249.458 18.32 249.458 19.38C249.458 20.42 249.238 21.34 248.838 22.14C248.418 22.94 247.838 23.54 247.118 23.98C246.378 24.42 245.538 24.62 244.618 24.62C243.858 24.62 243.198 24.48 242.638 24.2C242.078 23.92 241.618 23.54 241.298 23.06V28.5H239.138V14.26H241.018L241.278 15.78C242.098 14.7 243.218 14.14 244.618 14.14C245.538 14.14 246.378 14.36 247.118 14.78ZM246.418 21.84C246.978 21.2 247.258 20.38 247.258 19.38C247.258 18.38 246.978 17.56 246.418 16.92C245.858 16.3 245.138 15.98 244.258 15.98C243.358 15.98 242.638 16.3 242.098 16.92C241.538 17.54 241.278 18.34 241.278 19.34C241.278 20.38 241.538 21.2 242.098 21.84C242.638 22.48 243.358 22.8 244.258 22.8C245.138 22.8 245.858 22.48 246.418 21.84ZM253.149 19.94C253.209 20.78 253.549 21.44 254.149 21.94C254.749 22.44 255.549 22.68 256.529 22.68C257.369 22.68 258.069 22.5 258.589 22.14C259.109 21.78 259.389 21.26 259.389 20.6C259.389 20.14 259.229 19.78 258.949 19.5C258.669 19.22 258.269 19.02 257.789 18.86C257.289 18.72 256.589 18.56 255.709 18.4C254.789 18.24 254.009 18.04 253.369 17.78C252.729 17.52 252.189 17.12 251.789 16.58C251.389 16.06 251.189 15.36 251.189 14.48C251.189 13.68 251.389 12.98 251.809 12.34C252.229 11.72 252.809 11.24 253.569 10.88C254.329 10.54 255.189 10.36 256.169 10.36C257.169 10.36 258.049 10.56 258.849 10.92C259.629 11.3 260.249 11.82 260.709 12.46C261.149 13.12 261.409 13.86 261.449 14.7H259.189C259.109 13.98 258.789 13.4 258.249 12.96C257.689 12.52 257.009 12.3 256.169 12.3C255.349 12.3 254.689 12.48 254.209 12.84C253.729 13.2 253.489 13.68 253.489 14.32C253.489 14.78 253.629 15.14 253.909 15.4C254.189 15.68 254.589 15.88 255.069 16C255.549 16.14 256.229 16.28 257.129 16.44C258.029 16.6 258.809 16.82 259.469 17.08C260.109 17.36 260.649 17.74 261.069 18.26C261.469 18.78 261.689 19.48 261.689 20.32C261.689 21.16 261.469 21.9 261.029 22.54C260.589 23.2 259.969 23.72 259.189 24.08C258.389 24.44 257.509 24.62 256.509 24.62C255.389 24.62 254.429 24.42 253.589 24.02C252.749 23.62 252.089 23.08 251.609 22.36C251.129 21.64 250.889 20.82 250.889 19.9L253.149 19.94ZM263.734 16.64C264.154 15.84 264.734 15.24 265.494 14.8C266.254 14.36 267.114 14.14 268.094 14.14C269.074 14.14 269.934 14.34 270.694 14.74C271.454 15.14 272.034 15.72 272.474 16.44C272.914 17.18 273.134 18.04 273.154 19.02C273.154 19.3 273.134 19.56 273.094 19.84H265.374V19.96C265.414 20.86 265.694 21.56 266.214 22.08C266.714 22.6 267.394 22.86 268.234 22.86C268.894 22.86 269.454 22.72 269.914 22.4C270.354 22.08 270.654 21.64 270.814 21.06H272.974C272.774 22.1 272.274 22.96 271.454 23.62C270.634 24.3 269.614 24.62 268.394 24.62C267.314 24.62 266.394 24.42 265.594 23.98C264.794 23.54 264.194 22.94 263.754 22.14C263.314 21.36 263.114 20.44 263.114 19.4C263.114 18.36 263.314 17.44 263.734 16.64ZM270.954 18.26C270.854 17.52 270.554 16.94 270.054 16.52C269.554 16.1 268.934 15.88 268.174 15.88C267.454 15.88 266.854 16.1 266.334 16.54C265.814 16.98 265.534 17.54 265.454 18.26H270.954ZM282.8 23.62C281.96 24.3 280.9 24.62 279.62 24.62C278.6 24.62 277.7 24.42 276.94 23.98C276.16 23.54 275.56 22.92 275.14 22.12C274.72 21.32 274.52 20.4 274.52 19.36C274.52 18.32 274.72 17.42 275.16 16.62C275.58 15.84 276.18 15.24 276.96 14.8C277.74 14.36 278.64 14.14 279.68 14.14C280.96 14.14 282 14.48 282.82 15.16C283.62 15.84 284.14 16.74 284.34 17.9H282.12C281.96 17.32 281.68 16.86 281.24 16.5C280.8 16.16 280.26 15.98 279.62 15.98C278.74 15.98 278.04 16.3 277.52 16.92C277 17.56 276.74 18.36 276.74 19.36C276.74 20.38 277 21.2 277.52 21.84C278.04 22.48 278.74 22.78 279.62 22.78C280.28 22.78 280.84 22.62 281.28 22.26C281.72 21.9 282 21.42 282.14 20.82H284.34C284.14 22.02 283.62 22.94 282.8 23.62ZM290.229 10.5H292.669L296.529 21.74L300.429 10.5H302.809L297.909 24.5H295.149L290.229 10.5ZM312.434 22.62V24.5H311.294C310.614 24.5 310.134 24.36 309.854 24.08C309.554 23.8 309.414 23.4 309.414 22.86C308.634 24.04 307.514 24.62 306.034 24.62C304.874 24.62 303.954 24.36 303.274 23.82C302.574 23.3 302.234 22.56 302.234 21.62C302.234 20.58 302.594 19.76 303.354 19.2C304.094 18.64 305.174 18.34 306.614 18.34H309.194V17.72C309.194 17.16 308.994 16.7 308.594 16.38C308.194 16.06 307.634 15.88 306.934 15.88C306.294 15.88 305.774 16.02 305.374 16.3C304.974 16.58 304.734 16.94 304.654 17.38H302.534C302.634 16.36 303.094 15.56 303.894 15C304.694 14.44 305.734 14.14 307.034 14.14C308.394 14.14 309.454 14.46 310.214 15.1C310.954 15.74 311.334 16.66 311.334 17.86V21.9C311.334 22.38 311.554 22.62 312.014 22.62H312.434ZM309.194 19.94H306.514C305.834 19.94 305.334 20.08 304.974 20.34C304.614 20.6 304.434 20.98 304.434 21.48C304.434 21.92 304.594 22.28 304.934 22.54C305.274 22.82 305.734 22.94 306.334 22.94C307.214 22.94 307.914 22.7 308.414 22.22C308.914 21.74 309.174 21.1 309.194 20.3V19.94ZM313.611 10.5H315.771V24.5H313.611V10.5ZM319.908 10.54C320.148 10.78 320.288 11.1 320.288 11.46C320.288 11.84 320.148 12.16 319.908 12.4C319.648 12.64 319.328 12.76 318.968 12.76C318.588 12.76 318.268 12.64 318.028 12.4C317.768 12.16 317.648 11.84 317.648 11.46C317.648 11.1 317.768 10.78 318.028 10.54C318.268 10.3 318.588 10.16 318.968 10.16C319.328 10.16 319.648 10.3 319.908 10.54ZM317.888 14.26H320.048V24.5H317.888V14.26ZM332.105 10.5V24.5H330.225L329.965 22.96C329.145 24.08 328.025 24.62 326.625 24.62C325.685 24.62 324.845 24.42 324.125 24C323.385 23.58 322.805 22.98 322.405 22.18C321.985 21.38 321.785 20.46 321.785 19.38C321.785 18.34 321.985 17.44 322.405 16.64C322.825 15.84 323.405 15.24 324.145 14.8C324.865 14.36 325.705 14.14 326.625 14.14C327.365 14.14 328.025 14.28 328.585 14.56C329.145 14.84 329.585 15.2 329.945 15.68V10.5H332.105ZM329.145 21.86C329.685 21.24 329.965 20.42 329.965 19.42C329.965 18.4 329.685 17.58 329.145 16.94C328.585 16.3 327.865 15.98 326.985 15.98C326.085 15.98 325.365 16.3 324.825 16.94C324.265 17.58 324.005 18.38 324.005 19.38C324.005 20.4 324.265 21.22 324.825 21.86C325.365 22.5 326.085 22.8 326.985 22.8C327.865 22.8 328.585 22.5 329.145 21.86ZM344.016 22.62V24.5H342.876C342.196 24.5 341.716 24.36 341.436 24.08C341.136 23.8 340.996 23.4 340.996 22.86C340.216 24.04 339.096 24.62 337.616 24.62C336.456 24.62 335.536 24.36 334.856 23.82C334.156 23.3 333.816 22.56 333.816 21.62C333.816 20.58 334.176 19.76 334.936 19.2C335.676 18.64 336.756 18.34 338.196 18.34H340.776V17.72C340.776 17.16 340.576 16.7 340.176 16.38C339.776 16.06 339.216 15.88 338.516 15.88C337.876 15.88 337.356 16.02 336.956 16.3C336.556 16.58 336.316 16.94 336.236 17.38H334.116C334.216 16.36 334.676 15.56 335.476 15C336.276 14.44 337.316 14.14 338.616 14.14C339.976 14.14 341.036 14.46 341.796 15.1C342.536 15.74 342.916 16.66 342.916 17.86V21.9C342.916 22.38 343.136 22.62 343.596 22.62H344.016ZM340.776 19.94H338.096C337.416 19.94 336.916 20.08 336.556 20.34C336.196 20.6 336.016 20.98 336.016 21.48C336.016 21.92 336.176 22.28 336.516 22.54C336.856 22.82 337.316 22.94 337.916 22.94C338.796 22.94 339.496 22.7 339.996 22.22C340.496 21.74 340.756 21.1 340.776 20.3V19.94ZM345.853 16.16H344.073V14.26H345.853V11.4H348.033V14.26H350.493V16.16H348.033V21.5C348.033 21.9 348.113 22.2 348.273 22.36C348.433 22.52 348.693 22.6 349.093 22.6H350.733V24.5H348.653C347.673 24.5 346.953 24.28 346.513 23.82C346.073 23.38 345.853 22.68 345.853 21.72V16.16ZM353.777 23.98C352.977 23.54 352.377 22.94 351.937 22.14C351.497 21.34 351.297 20.42 351.297 19.38C351.297 18.36 351.497 17.46 351.937 16.66C352.377 15.86 352.977 15.24 353.777 14.8C354.577 14.36 355.477 14.14 356.517 14.14C357.537 14.14 358.437 14.36 359.237 14.8C360.037 15.24 360.637 15.86 361.077 16.66C361.517 17.46 361.737 18.36 361.737 19.38C361.737 20.42 361.517 21.34 361.077 22.14C360.637 22.94 360.037 23.54 359.237 23.98C358.437 24.42 357.537 24.62 356.517 24.62C355.477 24.62 354.577 24.42 353.777 23.98ZM358.697 21.84C359.257 21.2 359.537 20.38 359.537 19.38C359.537 18.38 359.257 17.58 358.697 16.94C358.137 16.3 357.417 15.98 356.517 15.98C355.597 15.98 354.877 16.3 354.337 16.94C353.777 17.58 353.517 18.38 353.517 19.38C353.517 20.38 353.777 21.2 354.337 21.84C354.877 22.48 355.597 22.78 356.517 22.78C357.417 22.78 358.137 22.48 358.697 21.84ZM369.134 14.26V16.28H368.174C367.274 16.28 366.634 16.58 366.234 17.16C365.834 17.74 365.634 18.48 365.634 19.36V24.5H363.474V14.26H365.394L365.634 15.8C365.914 15.32 366.294 14.96 366.774 14.68C367.234 14.4 367.854 14.26 368.654 14.26H369.134ZM371.932 21.12C371.972 21.66 372.212 22.1 372.672 22.44C373.132 22.78 373.732 22.94 374.472 22.94C375.112 22.94 375.652 22.82 376.052 22.58C376.452 22.34 376.672 22 376.672 21.58C376.672 21.24 376.572 20.98 376.392 20.8C376.192 20.64 375.952 20.52 375.632 20.44C375.312 20.36 374.832 20.28 374.192 20.2C373.292 20.1 372.552 19.96 371.972 19.78C371.392 19.6 370.932 19.32 370.572 18.92C370.212 18.52 370.052 18 370.052 17.32C370.052 16.7 370.212 16.14 370.572 15.66C370.932 15.18 371.412 14.8 372.032 14.52C372.652 14.26 373.352 14.12 374.152 14.12C375.432 14.12 376.492 14.42 377.292 14.98C378.092 15.56 378.532 16.36 378.612 17.4H376.512C376.452 16.94 376.212 16.56 375.812 16.26C375.392 15.96 374.872 15.8 374.252 15.8C373.612 15.8 373.112 15.92 372.732 16.16C372.332 16.4 372.152 16.74 372.152 17.14C372.152 17.46 372.232 17.68 372.432 17.84C372.632 18 372.872 18.1 373.172 18.16C373.452 18.22 373.932 18.28 374.592 18.36C375.472 18.46 376.212 18.6 376.812 18.8C377.412 19 377.892 19.3 378.252 19.72C378.612 20.14 378.792 20.7 378.792 21.42C378.792 22.06 378.592 22.64 378.232 23.12C377.852 23.6 377.332 23.98 376.692 24.24C376.032 24.5 375.292 24.62 374.492 24.62C373.112 24.62 371.992 24.32 371.152 23.7C370.312 23.08 369.872 22.22 369.852 21.12H371.932Z" fill="white"/>
<path d="M4.00391 68.5C4.00391 66.6144 4.00391 65.6716 4.58969 65.0858C5.17548 64.5 6.11829 64.5 8.00391 64.5H8.43575C9.21049 64.5 9.59786 64.5 9.94981 64.638C10.3018 64.776 10.5859 65.0392 11.1542 65.5658L12.8234 67.1122C13.3546 67.6043 13.6202 67.8504 13.781 68.1617C13.8207 68.2386 13.8554 68.318 13.8848 68.3994C14.0039 68.729 14.0039 69.091 14.0039 69.8152C14.0039 71.3963 14.0039 72.1869 13.5819 72.7288C13.4804 72.8592 13.3631 72.9765 13.2327 73.078C12.6908 73.5 11.9002 73.5 10.3191 73.5H8.00391C6.11829 73.5 5.17548 73.5 4.58969 72.9142C4.00391 72.3284 4.00391 71.3856 4.00391 69.5V68.5Z" fill="#E5FF43"/>
<path d="M8.5501 63.7501C9.21257 63.7495 9.73669 63.749 10.2236 63.9399C10.7104 64.1307 11.0946 64.4873 11.5801 64.9379L13.4119 66.635C13.8662 67.0552 14.2249 67.387 14.4474 67.8177C14.502 67.9235 14.5497 68.0327 14.5901 68.1446C14.7549 68.6005 14.7545 69.0891 14.754 69.708C14.754 70.4616 14.7539 71.241 14.6963 71.7467C14.6359 72.2775 14.5039 72.7656 14.1736 73.1897C14.0341 73.369 13.8728 73.5303 13.6935 73.6699C13.2694 74.0001 12.7812 74.1321 12.2505 74.1926C11.7448 74.2502 11.1161 74.2502 10.3625 74.2501H7.95191C7.05344 74.2502 6.3042 74.2502 5.70943 74.1702C5.08164 74.0858 4.51483 73.9001 4.05936 73.4447C3.60389 72.9892 3.41822 72.4224 3.33382 71.7946C3.25385 71.1998 3.25388 70.4506 3.25391 69.5522V68.4481C3.25388 67.5497 3.25385 66.8004 3.33382 66.2057C3.41822 65.5779 3.60389 65.0111 4.05936 64.5556C4.51483 64.1001 5.08163 63.9144 5.70943 63.83C6.30421 63.7501 7.05343 63.7501 7.95191 63.7501L8.5501 63.7501Z" fill="#E5FF43"/>
<path opacity="0.4" d="M1.25 79.5C1.25 77.4289 2.92893 75.75 5 75.75H15C17.0711 75.75 18.75 77.4289 18.75 79.5C18.75 81.5711 17.0711 83.25 15 83.25H5C2.92893 83.25 1.25 81.5711 1.25 79.5Z" fill="#E5FF43"/>
<path fill-rule="evenodd" clip-rule="evenodd" d="M5 79.5C5 78.9477 5.44772 78.5 6 78.5H6.00897C6.56126 78.5 7.00897 78.9477 7.00897 79.5C7.00897 80.0523 6.56126 80.5 6.00897 80.5H6C5.44772 80.5 5 80.0523 5 79.5ZM8.99551 79.5C8.99551 78.9477 9.44323 78.5 9.99551 78.5H10.0045C10.5568 78.5 11.0045 78.9477 11.0045 79.5C11.0045 80.0523 10.5568 80.5 10.0045 80.5H9.99551C9.44323 80.5 8.99551 80.0523 8.99551 79.5ZM12.991 79.5C12.991 78.9477 13.4387 78.5 13.991 78.5H14C14.5523 78.5 15 78.9477 15 79.5C15 80.0523 14.5523 80.5 14 80.5H13.991C13.4387 80.5 12.991 80.0523 12.991 79.5Z" fill="#E5FF43"/>
<path opacity="0.4" fill-rule="evenodd" clip-rule="evenodd" d="M19.5101 61.5001C19.5707 61.5001 19.6322 61.5002 19.6944 61.5002H20C20.5523 61.5002 21 61.9479 21 62.5002C21 63.0525 20.5523 63.5002 20 63.5002H19.6944C18.2787 63.5002 17.8731 63.5207 17.5279 63.6757C17.1827 63.8307 16.8979 64.1203 15.9574 65.1784L13.7474 67.6646C13.3805 68.0773 12.7484 68.1145 12.3356 67.7476C11.9229 67.3807 11.8857 66.7486 12.2526 66.3358L14.4625 63.8497C14.5039 63.8031 14.5447 63.7572 14.5849 63.7118C15.3453 62.855 15.9229 62.2041 16.7086 61.8512C17.4943 61.4984 18.3645 61.4991 19.5101 61.5001Z" fill="#E5FF43"/>
<path fill-rule="evenodd" clip-rule="evenodd" d="M20.0011 64.5C20.5534 64.5 21.0011 64.9477 21.0011 65.5V66C21.0011 66.5523 20.5534 67 20.0011 67C19.4488 67 19.0011 66.5523 19.0011 66V65.5C19.0011 64.9477 19.4488 64.5 20.0011 64.5ZM20.0011 67.5C20.5534 67.5 21.0011 67.9477 21.0011 68.5V69C21.0011 69.5523 20.5534 70 20.0011 70C19.4488 70 19.0011 69.5523 19.0011 69V68.5C19.0011 67.9477 19.4488 67.5 20.0011 67.5ZM20.9041 71.1802C20.7707 70.7848 20.3968 70.5 19.9563 70.5C19.4041 70.5 18.9563 70.9477 18.9563 71.5V72C18.9563 72.5523 19.4041 73 19.9563 73C20.2842 73 20.5003 73.2509 20.5003 73.5C20.5003 73.7491 20.2842 74 19.9563 74C19.703 74 19.5077 73.8442 19.44 73.6581C19.2512 73.1391 18.6774 72.8714 18.1584 73.0603C17.6394 73.2491 17.3717 73.8229 17.5605 74.3419C17.9167 75.321 18.8652 76 19.9563 76C21.3339 76 22.5003 74.9077 22.5003 73.5C22.5003 72.4323 21.8293 71.5461 20.9041 71.1802Z" fill="#E5FF43"/>
<path d="M45.48 77.16C44.9 78.24 44.1 79.1 43.06 79.7C42.02 80.32 40.86 80.62 39.54 80.62C38.22 80.62 37.04 80.32 36 79.7C34.96 79.1 34.16 78.24 33.6 77.16C33.02 76.08 32.74 74.86 32.74 73.5C32.74 72.14 33.02 70.92 33.6 69.84C34.16 68.76 34.96 67.92 36 67.3C37.04 66.7 38.22 66.38 39.54 66.38C40.86 66.38 42.02 66.7 43.06 67.3C44.1 67.92 44.9 68.76 45.48 69.84C46.04 70.92 46.34 72.14 46.34 73.5C46.34 74.86 46.04 76.08 45.48 77.16ZM35.66 76.14C36.02 76.92 36.54 77.52 37.22 77.96C37.9 78.4 38.66 78.6 39.54 78.6C40.4 78.6 41.16 78.4 41.84 77.96C42.52 77.52 43.04 76.92 43.42 76.14C43.78 75.36 43.98 74.48 43.98 73.5C43.98 72.54 43.78 71.66 43.42 70.88C43.04 70.1 42.52 69.5 41.84 69.06C41.16 68.62 40.4 68.4 39.54 68.4C38.66 68.4 37.9 68.62 37.22 69.06C36.54 69.5 36.02 70.1 35.66 70.88C35.28 71.66 35.1 72.54 35.1 73.5C35.1 74.48 35.28 75.36 35.66 76.14ZM56.1181 70.78C56.8381 71.2 57.4181 71.8 57.8381 72.6C58.2381 73.4 58.4581 74.32 58.4581 75.38C58.4581 76.42 58.2381 77.34 57.8381 78.14C57.4181 78.94 56.8381 79.54 56.1181 79.98C55.3781 80.42 54.5381 80.62 53.6181 80.62C52.8581 80.62 52.1981 80.48 51.6381 80.2C51.0781 79.92 50.6181 79.54 50.2981 79.06V84.5H48.1381V70.26H50.0181L50.2781 71.78C51.0981 70.7 52.2181 70.14 53.6181 70.14C54.5381 70.14 55.3781 70.36 56.1181 70.78ZM55.4181 77.84C55.9781 77.2 56.2581 76.38 56.2581 75.38C56.2581 74.38 55.9781 73.56 55.4181 72.92C54.8581 72.3 54.1381 71.98 53.2581 71.98C52.3581 71.98 51.6381 72.3 51.0981 72.92C50.5381 73.54 50.2781 74.34 50.2781 75.34C50.2781 76.38 50.5381 77.2 51.0981 77.84C51.6381 78.48 52.3581 78.8 53.2581 78.8C54.1381 78.8 54.8581 78.48 55.4181 77.84ZM62.1489 75.94C62.2089 76.78 62.5489 77.44 63.1489 77.94C63.7489 78.44 64.5489 78.68 65.5289 78.68C66.3689 78.68 67.0689 78.5 67.5889 78.14C68.1089 77.78 68.3889 77.26 68.3889 76.6C68.3889 76.14 68.2289 75.78 67.9489 75.5C67.6689 75.22 67.2689 75.02 66.7889 74.86C66.2889 74.72 65.5889 74.56 64.7089 74.4C63.7889 74.24 63.0089 74.04 62.3689 73.78C61.7289 73.52 61.1889 73.12 60.7889 72.58C60.3889 72.06 60.1889 71.36 60.1889 70.48C60.1889 69.68 60.3889 68.98 60.8089 68.34C61.2289 67.72 61.8089 67.24 62.5689 66.88C63.3289 66.54 64.1889 66.36 65.1689 66.36C66.1689 66.36 67.0489 66.56 67.8489 66.92C68.6289 67.3 69.2489 67.82 69.7089 68.46C70.1489 69.12 70.4089 69.86 70.4489 70.7H68.1889C68.1089 69.98 67.7889 69.4 67.2489 68.96C66.6889 68.52 66.0089 68.3 65.1689 68.3C64.3489 68.3 63.6889 68.48 63.2089 68.84C62.7289 69.2 62.4889 69.68 62.4889 70.32C62.4889 70.78 62.6289 71.14 62.9089 71.4C63.1889 71.68 63.5889 71.88 64.0689 72C64.5489 72.14 65.2289 72.28 66.1289 72.44C67.0289 72.6 67.8089 72.82 68.4689 73.08C69.1089 73.36 69.6489 73.74 70.0689 74.26C70.4689 74.78 70.6889 75.48 70.6889 76.32C70.6889 77.16 70.4689 77.9 70.0289 78.54C69.5889 79.2 68.9689 79.72 68.1889 80.08C67.3889 80.44 66.5089 80.62 65.5089 80.62C64.3889 80.62 63.4289 80.42 62.5889 80.02C61.7489 79.62 61.0889 79.08 60.6089 78.36C60.1289 77.64 59.8889 76.82 59.8889 75.9L62.1489 75.94ZM72.7336 72.64C73.1536 71.84 73.7336 71.24 74.4936 70.8C75.2536 70.36 76.1136 70.14 77.0936 70.14C78.0736 70.14 78.9336 70.34 79.6936 70.74C80.4536 71.14 81.0336 71.72 81.4736 72.44C81.9136 73.18 82.1336 74.04 82.1536 75.02C82.1536 75.3 82.1336 75.56 82.0936 75.84H74.3736V75.96C74.4136 76.86 74.6936 77.56 75.2136 78.08C75.7136 78.6 76.3936 78.86 77.2336 78.86C77.8936 78.86 78.4536 78.72 78.9136 78.4C79.3536 78.08 79.6536 77.64 79.8136 77.06H81.9736C81.7736 78.1 81.2736 78.96 80.4536 79.62C79.6336 80.3 78.6136 80.62 77.3936 80.62C76.3136 80.62 75.3936 80.42 74.5936 79.98C73.7936 79.54 73.1936 78.94 72.7536 78.14C72.3136 77.36 72.1136 76.44 72.1136 75.4C72.1136 74.36 72.3136 73.44 72.7336 72.64ZM79.9536 74.26C79.8536 73.52 79.5536 72.94 79.0536 72.52C78.5536 72.1 77.9336 71.88 77.1736 71.88C76.4536 71.88 75.8536 72.1 75.3336 72.54C74.8136 72.98 74.5336 73.54 74.4536 74.26H79.9536ZM91.7998 79.62C90.9598 80.3 89.8998 80.62 88.6198 80.62C87.5998 80.62 86.6998 80.42 85.9398 79.98C85.1598 79.54 84.5598 78.92 84.1398 78.12C83.7198 77.32 83.5198 76.4 83.5198 75.36C83.5198 74.32 83.7198 73.42 84.1598 72.62C84.5798 71.84 85.1798 71.24 85.9598 70.8C86.7398 70.36 87.6398 70.14 88.6798 70.14C89.9598 70.14 90.9998 70.48 91.8198 71.16C92.6198 71.84 93.1398 72.74 93.3398 73.9H91.1198C90.9598 73.32 90.6798 72.86 90.2398 72.5C89.7998 72.16 89.2598 71.98 88.6198 71.98C87.7398 71.98 87.0398 72.3 86.5198 72.92C85.9998 73.56 85.7398 74.36 85.7398 75.36C85.7398 76.38 85.9998 77.2 86.5198 77.84C87.0398 78.48 87.7398 78.78 88.6198 78.78C89.2798 78.78 89.8398 78.62 90.2798 78.26C90.7198 77.9 90.9998 77.42 91.1398 76.82H93.3398C93.1398 78.02 92.6198 78.94 91.7998 79.62ZM100.409 66.5H103.389L107.869 77.52L112.269 66.5H115.189V80.5H112.969V70.2L108.769 80.5H106.829L102.629 70.2V80.5H100.409V66.5ZM119.553 66.54C119.793 66.78 119.933 67.1 119.933 67.46C119.933 67.84 119.793 68.16 119.553 68.4C119.293 68.64 118.973 68.76 118.613 68.76C118.233 68.76 117.913 68.64 117.673 68.4C117.413 68.16 117.293 67.84 117.293 67.46C117.293 67.1 117.413 66.78 117.673 66.54C117.913 66.3 118.233 66.16 118.613 66.16C118.973 66.16 119.293 66.3 119.553 66.54ZM117.533 70.26H119.693V80.5H117.533V70.26ZM130.17 71.26C130.93 72.02 131.33 73.22 131.33 74.86V80.5H129.15V74.98C129.15 74.02 128.93 73.28 128.53 72.76C128.11 72.26 127.51 72 126.71 72C125.85 72 125.17 72.3 124.69 72.9C124.21 73.5 123.97 74.3 123.97 75.34V80.5H121.81V70.26H123.69L123.93 71.6C124.69 70.64 125.79 70.14 127.21 70.14C128.41 70.14 129.41 70.52 130.17 71.26ZM133.534 72.64C133.954 71.84 134.534 71.24 135.294 70.8C136.054 70.36 136.914 70.14 137.894 70.14C138.874 70.14 139.734 70.34 140.494 70.74C141.254 71.14 141.834 71.72 142.274 72.44C142.714 73.18 142.934 74.04 142.954 75.02C142.954 75.3 142.934 75.56 142.894 75.84H135.174V75.96C135.214 76.86 135.494 77.56 136.014 78.08C136.514 78.6 137.194 78.86 138.034 78.86C138.694 78.86 139.254 78.72 139.714 78.4C140.154 78.08 140.454 77.64 140.614 77.06H142.774C142.574 78.1 142.074 78.96 141.254 79.62C140.434 80.3 139.414 80.62 138.194 80.62C137.114 80.62 136.194 80.42 135.394 79.98C134.594 79.54 133.994 78.94 133.554 78.14C133.114 77.36 132.914 76.44 132.914 75.4C132.914 74.36 133.114 73.44 133.534 72.64ZM140.754 74.26C140.654 73.52 140.354 72.94 139.854 72.52C139.354 72.1 138.734 71.88 137.974 71.88C137.254 71.88 136.654 72.1 136.134 72.54C135.614 72.98 135.334 73.54 135.254 74.26H140.754ZM150.361 70.26V72.28H149.401C148.501 72.28 147.861 72.58 147.461 73.16C147.061 73.74 146.861 74.48 146.861 75.36V80.5H144.701V70.26H146.621L146.861 71.8C147.141 71.32 147.521 70.96 148.001 70.68C148.461 70.4 149.081 70.26 149.881 70.26H150.361ZM153.159 77.12C153.199 77.66 153.439 78.1 153.899 78.44C154.359 78.78 154.959 78.94 155.699 78.94C156.339 78.94 156.879 78.82 157.279 78.58C157.679 78.34 157.899 78 157.899 77.58C157.899 77.24 157.799 76.98 157.619 76.8C157.419 76.64 157.179 76.52 156.859 76.44C156.539 76.36 156.059 76.28 155.419 76.2C154.519 76.1 153.779 75.96 153.199 75.78C152.619 75.6 152.159 75.32 151.799 74.92C151.439 74.52 151.279 74 151.279 73.32C151.279 72.7 151.439 72.14 151.799 71.66C152.159 71.18 152.639 70.8 153.259 70.52C153.879 70.26 154.579 70.12 155.379 70.12C156.659 70.12 157.719 70.42 158.519 70.98C159.319 71.56 159.759 72.36 159.839 73.4H157.739C157.679 72.94 157.439 72.56 157.039 72.26C156.619 71.96 156.099 71.8 155.479 71.8C154.839 71.8 154.339 71.92 153.959 72.16C153.559 72.4 153.379 72.74 153.379 73.14C153.379 73.46 153.459 73.68 153.659 73.84C153.859 74 154.099 74.1 154.399 74.16C154.679 74.22 155.159 74.28 155.819 74.36C156.699 74.46 157.439 74.6 158.039 74.8C158.639 75 159.119 75.3 159.479 75.72C159.839 76.14 160.019 76.7 160.019 77.42C160.019 78.06 159.819 78.64 159.459 79.12C159.079 79.6 158.559 79.98 157.919 80.24C157.259 80.5 156.519 80.62 155.719 80.62C154.339 80.62 153.219 80.32 152.379 79.7C151.539 79.08 151.099 78.22 151.079 77.12H153.159Z" fill="white"/>
<path opacity="0.4" d="M204.945 62.25H205.059C207.25 62.25 208.972 62.25 210.315 62.4306C211.692 62.6157 212.785 63.0027 213.643 63.8609C214.502 64.7191 214.889 65.8114 215.074 67.188C215.205 68.164 215.241 69.3391 215.251 70.7489C215.254 71.2194 215.256 71.4546 215.109 71.6023C214.963 71.75 214.726 71.75 214.253 71.75H195.751C195.278 71.75 195.041 71.75 194.895 71.6023C194.748 71.4546 194.75 71.2194 194.753 70.7489C194.763 69.3391 194.799 68.164 194.93 67.188C195.115 65.8114 195.502 64.7191 196.36 63.8609C197.219 63.0027 198.311 62.6157 199.689 62.4306C201.032 62.25 202.753 62.25 204.945 62.25Z" fill="#B843FF"/>
<path d="M201 65.5C200.172 65.5 199.5 66.1716 199.5 67C199.5 67.8284 200.172 68.5 201 68.5C201.828 68.5 202.5 67.8284 202.5 67C202.5 66.1716 201.828 65.5 201 65.5Z" fill="#B843FF"/>
<path d="M205.75 66.25C205.336 66.25 205 66.5858 205 67C205 67.4142 205.336 67.75 205.75 67.75H209.75C210.164 67.75 210.5 67.4142 210.5 67C210.5 66.5858 210.164 66.25 209.75 66.25H205.75Z" fill="#B843FF"/>
<path opacity="0.4" d="M195.751 73.25H214.253C214.726 73.25 214.963 73.25 215.109 73.3977C215.256 73.5454 215.254 73.7806 215.251 74.2511C215.241 75.6609 215.205 76.836 215.074 77.812C214.889 79.1886 214.502 80.2809 213.643 81.1391C212.785 81.9973 211.692 82.3843 210.315 82.5694C208.972 82.75 207.25 82.75 205.059 82.75H204.945C202.753 82.75 201.032 82.75 199.689 82.5694C198.311 82.3843 197.219 81.9973 196.36 81.1391C195.502 80.2809 195.115 79.1886 194.93 77.812C194.799 76.836 194.763 75.6609 194.753 74.2511C194.75 73.7806 194.748 73.5454 194.895 73.3977C195.041 73.25 195.278 73.25 195.751 73.25Z" fill="#B843FF"/>
<path fill-rule="evenodd" clip-rule="evenodd" d="M201 76.5C200.172 76.5 199.5 77.1716 199.5 78C199.5 78.8284 200.172 79.5 201 79.5C201.828 79.5 202.5 78.8284 202.5 78C202.5 77.1716 201.828 76.5 201 76.5ZM205.75 77.25C205.336 77.25 205 77.5858 205 78C205 78.4142 205.336 78.75 205.75 78.75H209.75C210.164 78.75 210.5 78.4142 210.5 78C210.5 77.5858 210.164 77.25 209.75 77.25H205.75Z" fill="#B843FF"/>
<path d="M238.48 77.16C237.9 78.24 237.1 79.1 236.06 79.7C235.02 80.32 233.86 80.62 232.54 80.62C231.22 80.62 230.04 80.32 229 79.7C227.96 79.1 227.16 78.24 226.6 77.16C226.02 76.08 225.74 74.86 225.74 73.5C225.74 72.14 226.02 70.92 226.6 69.84C227.16 68.76 227.96 67.92 229 67.3C230.04 66.7 231.22 66.38 232.54 66.38C233.86 66.38 235.02 66.7 236.06 67.3C237.1 67.92 237.9 68.76 238.48 69.84C239.04 70.92 239.34 72.14 239.34 73.5C239.34 74.86 239.04 76.08 238.48 77.16ZM228.66 76.14C229.02 76.92 229.54 77.52 230.22 77.96C230.9 78.4 231.66 78.6 232.54 78.6C233.4 78.6 234.16 78.4 234.84 77.96C235.52 77.52 236.04 76.92 236.42 76.14C236.78 75.36 236.98 74.48 236.98 73.5C236.98 72.54 236.78 71.66 236.42 70.88C236.04 70.1 235.52 69.5 234.84 69.06C234.16 68.62 233.4 68.4 232.54 68.4C231.66 68.4 230.9 68.62 230.22 69.06C229.54 69.5 229.02 70.1 228.66 70.88C228.28 71.66 228.1 72.54 228.1 73.5C228.1 74.48 228.28 75.36 228.66 76.14ZM249.118 70.78C249.838 71.2 250.418 71.8 250.838 72.6C251.238 73.4 251.458 74.32 251.458 75.38C251.458 76.42 251.238 77.34 250.838 78.14C250.418 78.94 249.838 79.54 249.118 79.98C248.378 80.42 247.538 80.62 246.618 80.62C245.858 80.62 245.198 80.48 244.638 80.2C244.078 79.92 243.618 79.54 243.298 79.06V84.5H241.138V70.26H243.018L243.278 71.78C244.098 70.7 245.218 70.14 246.618 70.14C247.538 70.14 248.378 70.36 249.118 70.78ZM248.418 77.84C248.978 77.2 249.258 76.38 249.258 75.38C249.258 74.38 248.978 73.56 248.418 72.92C247.858 72.3 247.138 71.98 246.258 71.98C245.358 71.98 244.638 72.3 244.098 72.92C243.538 73.54 243.278 74.34 243.278 75.34C243.278 76.38 243.538 77.2 244.098 77.84C244.638 78.48 245.358 78.8 246.258 78.8C247.138 78.8 247.858 78.48 248.418 77.84ZM255.149 75.94C255.209 76.78 255.549 77.44 256.149 77.94C256.749 78.44 257.549 78.68 258.529 78.68C259.369 78.68 260.069 78.5 260.589 78.14C261.109 77.78 261.389 77.26 261.389 76.6C261.389 76.14 261.229 75.78 260.949 75.5C260.669 75.22 260.269 75.02 259.789 74.86C259.289 74.72 258.589 74.56 257.709 74.4C256.789 74.24 256.009 74.04 255.369 73.78C254.729 73.52 254.189 73.12 253.789 72.58C253.389 72.06 253.189 71.36 253.189 70.48C253.189 69.68 253.389 68.98 253.809 68.34C254.229 67.72 254.809 67.24 255.569 66.88C256.329 66.54 257.189 66.36 258.169 66.36C259.169 66.36 260.049 66.56 260.849 66.92C261.629 67.3 262.249 67.82 262.709 68.46C263.149 69.12 263.409 69.86 263.449 70.7H261.189C261.109 69.98 260.789 69.4 260.249 68.96C259.689 68.52 259.009 68.3 258.169 68.3C257.349 68.3 256.689 68.48 256.209 68.84C255.729 69.2 255.489 69.68 255.489 70.32C255.489 70.78 255.629 71.14 255.909 71.4C256.189 71.68 256.589 71.88 257.069 72C257.549 72.14 258.229 72.28 259.129 72.44C260.029 72.6 260.809 72.82 261.469 73.08C262.109 73.36 262.649 73.74 263.069 74.26C263.469 74.78 263.689 75.48 263.689 76.32C263.689 77.16 263.469 77.9 263.029 78.54C262.589 79.2 261.969 79.72 261.189 80.08C260.389 80.44 259.509 80.62 258.509 80.62C257.389 80.62 256.429 80.42 255.589 80.02C254.749 79.62 254.089 79.08 253.609 78.36C253.129 77.64 252.889 76.82 252.889 75.9L255.149 75.94ZM265.734 72.64C266.154 71.84 266.734 71.24 267.494 70.8C268.254 70.36 269.114 70.14 270.094 70.14C271.074 70.14 271.934 70.34 272.694 70.74C273.454 71.14 274.034 71.72 274.474 72.44C274.914 73.18 275.134 74.04 275.154 75.02C275.154 75.3 275.134 75.56 275.094 75.84H267.374V75.96C267.414 76.86 267.694 77.56 268.214 78.08C268.714 78.6 269.394 78.86 270.234 78.86C270.894 78.86 271.454 78.72 271.914 78.4C272.354 78.08 272.654 77.64 272.814 77.06H274.974C274.774 78.1 274.274 78.96 273.454 79.62C272.634 80.3 271.614 80.62 270.394 80.62C269.314 80.62 268.394 80.42 267.594 79.98C266.794 79.54 266.194 78.94 265.754 78.14C265.314 77.36 265.114 76.44 265.114 75.4C265.114 74.36 265.314 73.44 265.734 72.64ZM272.954 74.26C272.854 73.52 272.554 72.94 272.054 72.52C271.554 72.1 270.934 71.88 270.174 71.88C269.454 71.88 268.854 72.1 268.334 72.54C267.814 72.98 267.534 73.54 267.454 74.26H272.954ZM284.8 79.62C283.96 80.3 282.9 80.62 281.62 80.62C280.6 80.62 279.7 80.42 278.94 79.98C278.16 79.54 277.56 78.92 277.14 78.12C276.72 77.32 276.52 76.4 276.52 75.36C276.52 74.32 276.72 73.42 277.16 72.62C277.58 71.84 278.18 71.24 278.96 70.8C279.74 70.36 280.64 70.14 281.68 70.14C282.96 70.14 284 70.48 284.82 71.16C285.62 71.84 286.14 72.74 286.34 73.9H284.12C283.96 73.32 283.68 72.86 283.24 72.5C282.8 72.16 282.26 71.98 281.62 71.98C280.74 71.98 280.04 72.3 279.52 72.92C279 73.56 278.74 74.36 278.74 75.36C278.74 76.38 279 77.2 279.52 77.84C280.04 78.48 280.74 78.78 281.62 78.78C282.28 78.78 282.84 78.62 283.28 78.26C283.72 77.9 284 77.42 284.14 76.82H286.34C286.14 78.02 285.62 78.94 284.8 79.62ZM292.229 66.5H294.669L298.529 77.74L302.429 66.5H304.809L299.909 80.5H297.149L292.229 66.5ZM311.702 66.5C312.662 66.5 313.502 66.7 314.242 67.06C314.962 67.42 315.542 67.94 315.942 68.62C316.342 69.3 316.542 70.08 316.542 70.96C316.542 71.86 316.342 72.64 315.942 73.32C315.542 74 314.962 74.52 314.242 74.88C313.502 75.24 312.662 75.42 311.702 75.42H308.482V80.5H306.182V66.5H311.702ZM308.482 73.42H311.502C312.322 73.42 312.982 73.2 313.462 72.76C313.942 72.32 314.202 71.72 314.202 70.96C314.202 70.2 313.962 69.6 313.482 69.16C313.002 68.72 312.342 68.5 311.522 68.5H308.482V73.42ZM320.051 75.94C320.111 76.78 320.451 77.44 321.051 77.94C321.651 78.44 322.451 78.68 323.431 78.68C324.271 78.68 324.971 78.5 325.491 78.14C326.011 77.78 326.291 77.26 326.291 76.6C326.291 76.14 326.131 75.78 325.851 75.5C325.571 75.22 325.171 75.02 324.691 74.86C324.191 74.72 323.491 74.56 322.611 74.4C321.691 74.24 320.911 74.04 320.271 73.78C319.631 73.52 319.091 73.12 318.691 72.58C318.291 72.06 318.091 71.36 318.091 70.48C318.091 69.68 318.291 68.98 318.711 68.34C319.131 67.72 319.711 67.24 320.471 66.88C321.231 66.54 322.091 66.36 323.071 66.36C324.071 66.36 324.951 66.56 325.751 66.92C326.531 67.3 327.151 67.82 327.611 68.46C328.051 69.12 328.311 69.86 328.351 70.7H326.091C326.011 69.98 325.691 69.4 325.151 68.96C324.591 68.52 323.911 68.3 323.071 68.3C322.251 68.3 321.591 68.48 321.111 68.84C320.631 69.2 320.391 69.68 320.391 70.32C320.391 70.78 320.531 71.14 320.811 71.4C321.091 71.68 321.491 71.88 321.971 72C322.451 72.14 323.131 72.28 324.031 72.44C324.931 72.6 325.711 72.82 326.371 73.08C327.011 73.36 327.551 73.74 327.971 74.26C328.371 74.78 328.591 75.48 328.591 76.32C328.591 77.16 328.371 77.9 327.931 78.54C327.491 79.2 326.871 79.72 326.091 80.08C325.291 80.44 324.411 80.62 323.411 80.62C322.291 80.62 321.331 80.42 320.491 80.02C319.651 79.62 318.991 79.08 318.511 78.36C318.031 77.64 317.791 76.82 317.791 75.9L320.051 75.94Z" fill="white"/>
<path fill-rule="evenodd" clip-rule="evenodd" d="M365.965 63.584C365.437 64.0519 365 64.6971 365 65.5V70.4876C365 71.4324 365.153 71.9637 365.958 72.4907C366.283 72.7037 366.648 72.9055 367.051 73.0952C369.014 74.0188 371.611 74.5 374 74.5C376.389 74.5 378.986 74.0188 380.949 73.0952C381.352 72.9055 381.717 72.7037 382.042 72.4907C382.847 71.9637 383 71.4324 383 70.4876V65.5C383 64.6971 382.562 64.0519 382.035 63.584C381.506 63.115 380.797 62.7384 380.008 62.4424C378.422 61.8475 376.297 61.5 374 61.5C371.703 61.5 369.578 61.8475 367.992 62.4424C367.203 62.7384 366.494 63.115 365.965 63.584ZM367.292 65.0805C366.935 65.3968 366.935 65.6032 367.292 65.9195C367.555 66.1528 367.979 66.4045 368.573 66.6385C368.692 66.6852 368.889 66.7153 368.964 66.8232C369 66.8747 369 66.9436 369 67.0813V69C369 69.5523 369.448 70 370 70C370.552 70 371 69.5523 371 69V67.7395C371 67.5225 371 67.4139 371.068 67.3542C371.136 67.2944 371.246 67.3089 371.465 67.338C372.25 67.442 373.103 67.5 374 67.5C376.121 67.5 377.997 67.1759 379.306 66.685C379.964 66.4381 380.427 66.1683 380.708 65.9195C381.065 65.6032 381.065 65.3968 380.708 65.0805C380.427 64.8317 379.964 64.5619 379.306 64.315C377.997 63.8241 376.121 63.5 374 63.5C371.879 63.5 370.003 63.8241 368.694 64.315C368.036 64.5619 367.573 64.8317 367.292 65.0805Z" fill="#FFB443"/>
<path opacity="0.4" d="M365.098 74.4412C365.195 74.383 365.339 74.4608 365.627 74.6164C365.815 74.7177 366.006 74.8137 366.199 74.9046C366.974 75.269 367.818 75.5695 368.698 75.8076C368.845 75.8471 368.918 75.8669 368.959 75.9207C369 75.9745 369 76.049 369 76.198V78C369 78.5523 369.448 79 370 79C370.552 79 371 78.5523 371 78V76.7431C371 76.5289 371 76.4218 371.067 76.3621C371.135 76.3024 371.243 76.3157 371.458 76.3422C372.316 76.4477 373.172 76.4998 374 76.4998C376.611 76.4998 379.514 75.981 381.801 74.9046C381.994 74.8137 382.185 74.7177 382.372 74.6164C382.661 74.4608 382.805 74.383 382.903 74.4412C383 74.4993 383 74.6584 383 74.9765V79.4998C383 80.3027 382.562 80.9479 382.035 81.4158C381.506 81.8848 380.797 82.2614 380.008 82.5575C378.422 83.1523 376.297 83.4998 374 83.4998C371.703 83.4998 369.578 83.1523 367.992 82.5575C367.203 82.2614 366.494 81.8848 365.965 81.4158C365.437 80.9479 365 80.3027 365 79.4998V74.9765C365 74.6584 365 74.4993 365.098 74.4412Z" fill="#FFB443"/>
<path d="M407.48 77.16C406.9 78.24 406.1 79.1 405.06 79.7C404.02 80.32 402.86 80.62 401.54 80.62C400.22 80.62 399.04 80.32 398 79.7C396.96 79.1 396.16 78.24 395.6 77.16C395.02 76.08 394.74 74.86 394.74 73.5C394.74 72.14 395.02 70.92 395.6 69.84C396.16 68.76 396.96 67.92 398 67.3C399.04 66.7 400.22 66.38 401.54 66.38C402.86 66.38 404.02 66.7 405.06 67.3C406.1 67.92 406.9 68.76 407.48 69.84C408.04 70.92 408.34 72.14 408.34 73.5C408.34 74.86 408.04 76.08 407.48 77.16ZM397.66 76.14C398.02 76.92 398.54 77.52 399.22 77.96C399.9 78.4 400.66 78.6 401.54 78.6C402.4 78.6 403.16 78.4 403.84 77.96C404.52 77.52 405.04 76.92 405.42 76.14C405.78 75.36 405.98 74.48 405.98 73.5C405.98 72.54 405.78 71.66 405.42 70.88C405.04 70.1 404.52 69.5 403.84 69.06C403.16 68.62 402.4 68.4 401.54 68.4C400.66 68.4 399.9 68.62 399.22 69.06C398.54 69.5 398.02 70.1 397.66 70.88C397.28 71.66 397.1 72.54 397.1 73.5C397.1 74.48 397.28 75.36 397.66 76.14ZM418.118 70.78C418.838 71.2 419.418 71.8 419.838 72.6C420.238 73.4 420.458 74.32 420.458 75.38C420.458 76.42 420.238 77.34 419.838 78.14C419.418 78.94 418.838 79.54 418.118 79.98C417.378 80.42 416.538 80.62 415.618 80.62C414.858 80.62 414.198 80.48 413.638 80.2C413.078 79.92 412.618 79.54 412.298 79.06V84.5H410.138V70.26H412.018L412.278 71.78C413.098 70.7 414.218 70.14 415.618 70.14C416.538 70.14 417.378 70.36 418.118 70.78ZM417.418 77.84C417.978 77.2 418.258 76.38 418.258 75.38C418.258 74.38 417.978 73.56 417.418 72.92C416.858 72.3 416.138 71.98 415.258 71.98C414.358 71.98 413.638 72.3 413.098 72.92C412.538 73.54 412.278 74.34 412.278 75.34C412.278 76.38 412.538 77.2 413.098 77.84C413.638 78.48 414.358 78.8 415.258 78.8C416.138 78.8 416.858 78.48 417.418 77.84ZM424.149 75.94C424.209 76.78 424.549 77.44 425.149 77.94C425.749 78.44 426.549 78.68 427.529 78.68C428.369 78.68 429.069 78.5 429.589 78.14C430.109 77.78 430.389 77.26 430.389 76.6C430.389 76.14 430.229 75.78 429.949 75.5C429.669 75.22 429.269 75.02 428.789 74.86C428.289 74.72 427.589 74.56 426.709 74.4C425.789 74.24 425.009 74.04 424.369 73.78C423.729 73.52 423.189 73.12 422.789 72.58C422.389 72.06 422.189 71.36 422.189 70.48C422.189 69.68 422.389 68.98 422.809 68.34C423.229 67.72 423.809 67.24 424.569 66.88C425.329 66.54 426.189 66.36 427.169 66.36C428.169 66.36 429.049 66.56 429.849 66.92C430.629 67.3 431.249 67.82 431.709 68.46C432.149 69.12 432.409 69.86 432.449 70.7H430.189C430.109 69.98 429.789 69.4 429.249 68.96C428.689 68.52 428.009 68.3 427.169 68.3C426.349 68.3 425.689 68.48 425.209 68.84C424.729 69.2 424.489 69.68 424.489 70.32C424.489 70.78 424.629 71.14 424.909 71.4C425.189 71.68 425.589 71.88 426.069 72C426.549 72.14 427.229 72.28 428.129 72.44C429.029 72.6 429.809 72.82 430.469 73.08C431.109 73.36 431.649 73.74 432.069 74.26C432.469 74.78 432.689 75.48 432.689 76.32C432.689 77.16 432.469 77.9 432.029 78.54C431.589 79.2 430.969 79.72 430.189 80.08C429.389 80.44 428.509 80.62 427.509 80.62C426.389 80.62 425.429 80.42 424.589 80.02C423.749 79.62 423.089 79.08 422.609 78.36C422.129 77.64 421.889 76.82 421.889 75.9L424.149 75.94ZM434.734 72.64C435.154 71.84 435.734 71.24 436.494 70.8C437.254 70.36 438.114 70.14 439.094 70.14C440.074 70.14 440.934 70.34 441.694 70.74C442.454 71.14 443.034 71.72 443.474 72.44C443.914 73.18 444.134 74.04 444.154 75.02C444.154 75.3 444.134 75.56 444.094 75.84H436.374V75.96C436.414 76.86 436.694 77.56 437.214 78.08C437.714 78.6 438.394 78.86 439.234 78.86C439.894 78.86 440.454 78.72 440.914 78.4C441.354 78.08 441.654 77.64 441.814 77.06H443.974C443.774 78.1 443.274 78.96 442.454 79.62C441.634 80.3 440.614 80.62 439.394 80.62C438.314 80.62 437.394 80.42 436.594 79.98C435.794 79.54 435.194 78.94 434.754 78.14C434.314 77.36 434.114 76.44 434.114 75.4C434.114 74.36 434.314 73.44 434.734 72.64ZM441.954 74.26C441.854 73.52 441.554 72.94 441.054 72.52C440.554 72.1 439.934 71.88 439.174 71.88C438.454 71.88 437.854 72.1 437.334 72.54C436.814 72.98 436.534 73.54 436.454 74.26H441.954ZM453.8 79.62C452.96 80.3 451.9 80.62 450.62 80.62C449.6 80.62 448.7 80.42 447.94 79.98C447.16 79.54 446.56 78.92 446.14 78.12C445.72 77.32 445.52 76.4 445.52 75.36C445.52 74.32 445.72 73.42 446.16 72.62C446.58 71.84 447.18 71.24 447.96 70.8C448.74 70.36 449.64 70.14 450.68 70.14C451.96 70.14 453 70.48 453.82 71.16C454.62 71.84 455.14 72.74 455.34 73.9H453.12C452.96 73.32 452.68 72.86 452.24 72.5C451.8 72.16 451.26 71.98 450.62 71.98C449.74 71.98 449.04 72.3 448.52 72.92C448 73.56 447.74 74.36 447.74 75.36C447.74 76.38 448 77.2 448.52 77.84C449.04 78.48 449.74 78.78 450.62 78.78C451.28 78.78 451.84 78.62 452.28 78.26C452.72 77.9 453 77.42 453.14 76.82H455.34C455.14 78.02 454.62 78.94 453.8 79.62ZM467.929 66.5C468.889 66.5 469.749 66.7 470.489 67.06C471.209 67.42 471.789 67.94 472.189 68.62C472.589 69.3 472.809 70.08 472.809 70.96C472.809 71.9 472.549 72.72 472.069 73.42C471.569 74.14 470.909 74.64 470.089 74.92L473.049 80.5H470.489L467.829 75.42H464.709V80.5H462.409V66.5H467.929ZM464.709 73.42H467.749C468.569 73.42 469.229 73.2 469.709 72.76C470.189 72.32 470.449 71.72 470.449 70.96C470.449 70.22 470.189 69.62 469.709 69.18C469.229 68.74 468.569 68.5 467.749 68.5H464.709V73.42ZM474.909 66.5H479.369C480.789 66.5 482.029 66.8 483.109 67.38C484.169 67.98 484.989 68.8 485.569 69.84C486.129 70.9 486.429 72.12 486.429 73.5C486.429 74.88 486.129 76.1 485.569 77.16C484.989 78.22 484.169 79.04 483.109 79.62C482.029 80.22 480.789 80.5 479.369 80.5H474.909V66.5ZM479.369 78.5C480.869 78.5 482.029 78.06 482.849 77.16C483.649 76.26 484.069 75.04 484.069 73.5C484.069 71.98 483.649 70.76 482.849 69.86C482.029 68.96 480.869 68.5 479.369 68.5H477.209V78.5H479.369ZM493.964 66.5C494.924 66.5 495.764 66.7 496.504 67.06C497.224 67.42 497.804 67.94 498.204 68.62C498.604 69.3 498.804 70.08 498.804 70.96C498.804 71.86 498.604 72.64 498.204 73.32C497.804 74 497.224 74.52 496.504 74.88C495.764 75.24 494.924 75.42 493.964 75.42H490.744V80.5H488.444V66.5H493.964ZM490.744 73.42H493.764C494.584 73.42 495.244 73.2 495.724 72.76C496.204 72.32 496.464 71.72 496.464 70.96C496.464 70.2 496.224 69.6 495.744 69.16C495.264 68.72 494.604 68.5 493.784 68.5H490.744V73.42Z" fill="white"/>
</svg>
