<svg width="506" height="89" viewBox="0 0 506 89" fill="none" xmlns="http://www.w3.org/2000/svg">
<path fill-rule="evenodd" clip-rule="evenodd" d="M7.27682 8.01108C8.60423 6.62116 10.4513 5.75 12.5 5.75C14.5487 5.75 16.3958 6.62116 17.7232 8.01108C18.1046 8.41048 18.0901 9.04348 17.6907 9.42492C17.2913 9.80636 16.6583 9.7918 16.2768 9.3924C15.3009 8.37054 13.966 7.75 12.5 7.75C11.034 7.75 9.69908 8.37054 8.72318 9.3924C8.34174 9.7918 7.70875 9.80636 7.30934 9.42492C6.90994 9.04348 6.89538 8.41048 7.27682 8.01108ZM9.52682 10.367C10.2784 9.58006 11.33 9.08182 12.5 9.08182C13.67 9.08182 14.7216 9.58006 15.4732 10.367C15.8546 10.7664 15.8401 11.3994 15.4407 11.7809C15.0413 12.1623 14.4083 12.1477 14.0268 11.7484C13.6267 11.3294 13.0873 11.0818 12.5 11.0818C11.9127 11.0818 11.3733 11.3294 10.9732 11.7484C10.5917 12.1477 9.95875 12.1623 9.55934 11.7809C9.15994 11.3994 9.14538 10.7664 9.52682 10.367ZM11.4996 13.75C11.4996 13.1977 11.9473 12.75 12.4996 12.75H12.5086C13.0609 12.75 13.5086 13.1977 13.5086 13.75C13.5086 14.3023 13.0609 14.75 12.5086 14.75H12.4996C11.9473 14.75 11.4996 14.3023 11.4996 13.75Z" fill="#FFCA43"/>
<path opacity="0.4" d="M6.45372 15.75H17.5463C18.4443 15.75 19.1852 15.75 19.781 15.8217C20.4063 15.897 20.9606 16.0595 21.4406 16.4469C21.7157 16.6691 21.9546 16.9354 22.1503 17.2346C22.4838 17.7447 22.6218 18.3255 22.6868 18.9924C22.75 19.6409 22.75 20.4525 22.75 21.4609V21.5391C22.75 22.5475 22.75 23.3591 22.6868 24.0076C22.6218 24.6745 22.4838 25.2553 22.1503 25.7654C21.9546 26.0646 21.7157 26.3309 21.4406 26.5531C20.9606 26.9405 20.4063 27.103 19.781 27.1783C19.1852 27.25 18.4443 27.25 17.5463 27.25H6.45369C5.55565 27.25 4.81483 27.25 4.21899 27.1783C3.59372 27.103 3.03942 26.9405 2.55943 26.5531C2.28428 26.3309 2.04536 26.0646 1.84974 25.7654C1.51618 25.2553 1.37825 24.6745 1.31322 24.0076C1.24998 23.3591 1.24999 22.5475 1.25 21.5392V21.4608C1.24999 20.4525 1.24998 19.6409 1.31322 18.9924C1.37825 18.3255 1.51618 17.7447 1.84974 17.2346C2.04536 16.9354 2.28428 16.6691 2.55943 16.4469C3.03942 16.0595 3.59372 15.897 4.21899 15.8217C4.81482 15.75 5.5557 15.75 6.45372 15.75Z" fill="#FFCA43"/>
<path fill-rule="evenodd" clip-rule="evenodd" d="M17.9953 20.5C17.4455 20.5 16.9998 20.9477 16.9998 21.5C16.9998 22.0523 17.4455 22.5 17.9953 22.5H18.0042C18.554 22.5 18.9998 22.0523 18.9998 21.5C18.9998 20.9477 18.554 20.5 18.0042 20.5H17.9953ZM12.9998 21.5C12.9998 20.9477 13.4455 20.5 13.9953 20.5H14.0042C14.554 20.5 14.9998 20.9477 14.9998 21.5C14.9998 22.0523 14.554 22.5 14.0042 22.5H13.9953C13.4455 22.5 12.9998 22.0523 12.9998 21.5ZM6 20.5C5.44772 20.5 5 20.9477 5 21.5C5 22.0523 5.44772 22.5 6 22.5H10C10.5523 22.5 11 22.0523 11 21.5C11 20.9477 10.5523 20.5 10 20.5H6Z" fill="#FFCA43"/>
<path d="M45.48 21.16C44.9 22.24 44.1 23.1 43.06 23.7C42.02 24.32 40.86 24.62 39.54 24.62C38.22 24.62 37.04 24.32 36 23.7C34.96 23.1 34.16 22.24 33.6 21.16C33.02 20.08 32.74 18.86 32.74 17.5C32.74 16.14 33.02 14.92 33.6 13.84C34.16 12.76 34.96 11.92 36 11.3C37.04 10.7 38.22 10.38 39.54 10.38C40.86 10.38 42.02 10.7 43.06 11.3C44.1 11.92 44.9 12.76 45.48 13.84C46.04 14.92 46.34 16.14 46.34 17.5C46.34 18.86 46.04 20.08 45.48 21.16ZM35.66 20.14C36.02 20.92 36.54 21.52 37.22 21.96C37.9 22.4 38.66 22.6 39.54 22.6C40.4 22.6 41.16 22.4 41.84 21.96C42.52 21.52 43.04 20.92 43.42 20.14C43.78 19.36 43.98 18.48 43.98 17.5C43.98 16.54 43.78 15.66 43.42 14.88C43.04 14.1 42.52 13.5 41.84 13.06C41.16 12.62 40.4 12.4 39.54 12.4C38.66 12.4 37.9 12.62 37.22 13.06C36.54 13.5 36.02 14.1 35.66 14.88C35.28 15.66 35.1 16.54 35.1 17.5C35.1 18.48 35.28 19.36 35.66 20.14ZM56.4981 15.26C57.2581 16.02 57.6581 17.22 57.6581 18.86V24.5H55.4781V18.98C55.4781 18.02 55.2581 17.28 54.8581 16.76C54.4381 16.26 53.8381 16 53.0381 16C52.1781 16 51.4981 16.3 51.0181 16.9C50.5381 17.5 50.2981 18.3 50.2981 19.34V24.5H48.1381V14.26H50.0181L50.2581 15.6C51.0181 14.64 52.1181 14.14 53.5381 14.14C54.7381 14.14 55.7381 14.52 56.4981 15.26ZM61.6425 10.54C61.8825 10.78 62.0225 11.1 62.0225 11.46C62.0225 11.84 61.8825 12.16 61.6425 12.4C61.3825 12.64 61.0625 12.76 60.7025 12.76C60.3225 12.76 60.0025 12.64 59.7625 12.4C59.5025 12.16 59.3825 11.84 59.3825 11.46C59.3825 11.1 59.5025 10.78 59.7625 10.54C60.0025 10.3 60.3225 10.16 60.7025 10.16C61.0625 10.16 61.3825 10.3 61.6425 10.54ZM59.6225 14.26H61.7825V24.5H59.6225V14.26ZM65.9998 23.98C65.1998 23.54 64.5998 22.94 64.1598 22.14C63.7198 21.34 63.5198 20.42 63.5198 19.38C63.5198 18.36 63.7198 17.46 64.1598 16.66C64.5998 15.86 65.1998 15.24 65.9998 14.8C66.7998 14.36 67.6998 14.14 68.7398 14.14C69.7598 14.14 70.6598 14.36 71.4598 14.8C72.2598 15.24 72.8598 15.86 73.2998 16.66C73.7398 17.46 73.9598 18.36 73.9598 19.38C73.9598 20.42 73.7398 21.34 73.2998 22.14C72.8598 22.94 72.2598 23.54 71.4598 23.98C70.6598 24.42 69.7598 24.62 68.7398 24.62C67.6998 24.62 66.7998 24.42 65.9998 23.98ZM70.9198 21.84C71.4798 21.2 71.7598 20.38 71.7598 19.38C71.7598 18.38 71.4798 17.58 70.9198 16.94C70.3598 16.3 69.6398 15.98 68.7398 15.98C67.8198 15.98 67.0998 16.3 66.5598 16.94C65.9998 17.58 65.7398 18.38 65.7398 19.38C65.7398 20.38 65.9998 21.2 66.5598 21.84C67.0998 22.48 67.8198 22.78 68.7398 22.78C69.6398 22.78 70.3598 22.48 70.9198 21.84ZM84.0567 15.26C84.8167 16.02 85.2167 17.22 85.2167 18.86V24.5H83.0367V18.98C83.0367 18.02 82.8167 17.28 82.4167 16.76C81.9967 16.26 81.3967 16 80.5967 16C79.7367 16 79.0567 16.3 78.5767 16.9C78.0967 17.5 77.8567 18.3 77.8567 19.34V24.5H75.6967V14.26H77.5767L77.8167 15.6C78.5767 14.64 79.6767 14.14 81.0967 14.14C82.2967 14.14 83.2967 14.52 84.0567 15.26ZM98.0383 10.5C98.9983 10.5 99.8583 10.7 100.598 11.06C101.318 11.42 101.898 11.94 102.298 12.62C102.698 13.3 102.918 14.08 102.918 14.96C102.918 15.9 102.658 16.72 102.178 17.42C101.678 18.14 101.018 18.64 100.198 18.92L103.158 24.5H100.598L97.9383 19.42H94.8183V24.5H92.5183V10.5H98.0383ZM94.8183 17.42H97.8583C98.6783 17.42 99.3383 17.2 99.8183 16.76C100.298 16.32 100.558 15.72 100.558 14.96C100.558 14.22 100.298 13.62 99.8183 13.18C99.3383 12.74 98.6783 12.5 97.8583 12.5H94.8183V17.42ZM106.41 23.98C105.61 23.54 105.01 22.94 104.57 22.14C104.13 21.34 103.93 20.42 103.93 19.38C103.93 18.36 104.13 17.46 104.57 16.66C105.01 15.86 105.61 15.24 106.41 14.8C107.21 14.36 108.11 14.14 109.15 14.14C110.17 14.14 111.07 14.36 111.87 14.8C112.67 15.24 113.27 15.86 113.71 16.66C114.15 17.46 114.37 18.36 114.37 19.38C114.37 20.42 114.15 21.34 113.71 22.14C113.27 22.94 112.67 23.54 111.87 23.98C111.07 24.42 110.17 24.62 109.15 24.62C108.11 24.62 107.21 24.42 106.41 23.98ZM111.33 21.84C111.89 21.2 112.17 20.38 112.17 19.38C112.17 18.38 111.89 17.58 111.33 16.94C110.77 16.3 110.05 15.98 109.15 15.98C108.23 15.98 107.51 16.3 106.97 16.94C106.41 17.58 106.15 18.38 106.15 19.38C106.15 20.38 106.41 21.2 106.97 21.84C107.51 22.48 108.23 22.78 109.15 22.78C110.05 22.78 110.77 22.48 111.33 21.84ZM125.287 14.26V24.5H123.387L123.147 23.2C122.367 24.16 121.307 24.62 119.987 24.62C118.787 24.62 117.807 24.26 117.067 23.5C116.307 22.76 115.947 21.56 115.947 19.9V14.26H118.107V19.68C118.107 20.68 118.307 21.44 118.707 21.96C119.107 22.48 119.687 22.74 120.487 22.74C121.307 22.74 121.947 22.44 122.427 21.84C122.887 21.24 123.127 20.4 123.127 19.34V14.26H125.287ZM128.134 16.16H126.354V14.26H128.134V11.4H130.314V14.26H132.774V16.16H130.314V21.5C130.314 21.9 130.394 22.2 130.554 22.36C130.714 22.52 130.974 22.6 131.374 22.6H133.014V24.5H130.934C129.954 24.5 129.234 24.28 128.794 23.82C128.354 23.38 128.134 22.68 128.134 21.72V16.16ZM136.193 10.54C136.433 10.78 136.573 11.1 136.573 11.46C136.573 11.84 136.433 12.16 136.193 12.4C135.933 12.64 135.613 12.76 135.253 12.76C134.873 12.76 134.553 12.64 134.313 12.4C134.053 12.16 133.933 11.84 133.933 11.46C133.933 11.1 134.053 10.78 134.313 10.54C134.553 10.3 134.873 10.16 135.253 10.16C135.613 10.16 135.933 10.3 136.193 10.54ZM134.173 14.26H136.333V24.5H134.173V14.26ZM146.811 15.26C147.571 16.02 147.971 17.22 147.971 18.86V24.5H145.791V18.98C145.791 18.02 145.571 17.28 145.171 16.76C144.751 16.26 144.151 16 143.351 16C142.491 16 141.811 16.3 141.331 16.9C140.851 17.5 140.611 18.3 140.611 19.34V24.5H138.451V14.26H140.331L140.571 15.6C141.331 14.64 142.431 14.14 143.851 14.14C145.051 14.14 146.051 14.52 146.811 15.26ZM159.875 14.26V24.08C159.875 25.52 159.435 26.64 158.595 27.44C157.735 28.24 156.415 28.62 154.635 28.62C153.235 28.62 152.115 28.32 151.255 27.7C150.375 27.08 149.895 26.2 149.815 25.06H152.015C152.135 25.64 152.455 26.08 152.935 26.4C153.415 26.72 154.035 26.86 154.795 26.86C156.755 26.86 157.735 25.92 157.735 24V22.86C156.975 23.98 155.875 24.54 154.395 24.54C153.455 24.54 152.615 24.34 151.895 23.92C151.155 23.5 150.575 22.9 150.175 22.12C149.755 21.34 149.555 20.42 149.555 19.34C149.555 18.32 149.755 17.42 150.175 16.62C150.595 15.84 151.175 15.24 151.915 14.8C152.635 14.36 153.475 14.14 154.395 14.14C155.155 14.14 155.835 14.3 156.395 14.6C156.955 14.92 157.395 15.34 157.755 15.86L157.995 14.26H159.875ZM156.915 21.8C157.455 21.18 157.735 20.38 157.735 19.38C157.735 18.38 157.455 17.56 156.915 16.92C156.355 16.28 155.635 15.96 154.755 15.96C153.855 15.96 153.135 16.28 152.595 16.9C152.035 17.54 151.775 18.34 151.775 19.34C151.775 20.34 152.035 21.16 152.595 21.78C153.135 22.42 153.855 22.72 154.755 22.72C155.635 22.72 156.355 22.42 156.915 21.8Z" fill="white"/>
<path d="M205 26.5C210.523 26.5 215 22.0228 215 16.5C215 10.9772 210.523 6.5 205 6.5C199.477 6.5 195 10.9772 195 16.5C195 22.0228 199.477 26.5 205 26.5Z" stroke="#43FFD2" stroke-width="1.5"/>
<path d="M201 16.5C201 22.5 205 26.5 205 26.5C205 26.5 209 22.5 209 16.5C209 10.5 205 6.5 205 6.5C205 6.5 201 10.5 201 16.5Z" stroke="#43FFD2" stroke-width="1.5" stroke-linejoin="round"/>
<path opacity="0.4" d="M214 13.5H196" stroke="#43FFD2" stroke-width="1.5" stroke-linecap="round" stroke-linejoin="round"/>
<path opacity="0.4" d="M214 19.5H196" stroke="#43FFD2" stroke-width="1.5" stroke-linecap="round" stroke-linejoin="round"/>
<path d="M226.28 10.5H229.26L233.74 21.52L238.14 10.5H241.06V24.5H238.84V14.2L234.64 24.5H232.7L228.5 14.2V24.5H226.28V10.5ZM243.644 16.64C244.064 15.84 244.644 15.24 245.404 14.8C246.164 14.36 247.024 14.14 248.004 14.14C248.984 14.14 249.844 14.34 250.604 14.74C251.364 15.14 251.944 15.72 252.384 16.44C252.824 17.18 253.044 18.04 253.064 19.02C253.064 19.3 253.044 19.56 253.004 19.84H245.284V19.96C245.324 20.86 245.604 21.56 246.124 22.08C246.624 22.6 247.304 22.86 248.144 22.86C248.804 22.86 249.364 22.72 249.824 22.4C250.264 22.08 250.564 21.64 250.724 21.06H252.884C252.684 22.1 252.184 22.96 251.364 23.62C250.544 24.3 249.524 24.62 248.304 24.62C247.224 24.62 246.304 24.42 245.504 23.98C244.704 23.54 244.104 22.94 243.664 22.14C243.224 21.36 243.024 20.44 243.024 19.4C243.024 18.36 243.224 17.44 243.644 16.64ZM250.864 18.26C250.764 17.52 250.464 16.94 249.964 16.52C249.464 16.1 248.844 15.88 248.084 15.88C247.364 15.88 246.764 16.1 246.244 16.54C245.724 16.98 245.444 17.54 245.364 18.26H250.864ZM256.471 21.12C256.511 21.66 256.751 22.1 257.211 22.44C257.671 22.78 258.271 22.94 259.011 22.94C259.651 22.94 260.191 22.82 260.591 22.58C260.991 22.34 261.211 22 261.211 21.58C261.211 21.24 261.111 20.98 260.931 20.8C260.731 20.64 260.491 20.52 260.171 20.44C259.851 20.36 259.371 20.28 258.731 20.2C257.831 20.1 257.091 19.96 256.511 19.78C255.931 19.6 255.471 19.32 255.111 18.92C254.751 18.52 254.591 18 254.591 17.32C254.591 16.7 254.751 16.14 255.111 15.66C255.471 15.18 255.951 14.8 256.571 14.52C257.191 14.26 257.891 14.12 258.691 14.12C259.971 14.12 261.031 14.42 261.831 14.98C262.631 15.56 263.071 16.36 263.151 17.4H261.051C260.991 16.94 260.751 16.56 260.351 16.26C259.931 15.96 259.411 15.8 258.791 15.8C258.151 15.8 257.651 15.92 257.271 16.16C256.871 16.4 256.691 16.74 256.691 17.14C256.691 17.46 256.771 17.68 256.971 17.84C257.171 18 257.411 18.1 257.711 18.16C257.991 18.22 258.471 18.28 259.131 18.36C260.011 18.46 260.751 18.6 261.351 18.8C261.951 19 262.431 19.3 262.791 19.72C263.151 20.14 263.331 20.7 263.331 21.42C263.331 22.06 263.131 22.64 262.771 23.12C262.391 23.6 261.871 23.98 261.231 24.24C260.571 24.5 259.831 24.62 259.031 24.62C257.651 24.62 256.531 24.32 255.691 23.7C254.851 23.08 254.411 22.22 254.391 21.12H256.471ZM273.443 15.26C274.203 16.02 274.603 17.22 274.603 18.86V24.5H272.443V18.98C272.443 18.02 272.223 17.28 271.803 16.76C271.383 16.26 270.783 16 269.983 16C269.123 16 268.443 16.3 267.963 16.9C267.483 17.5 267.243 18.3 267.243 19.32V24.5H265.083V10.5H267.243V15.74C268.003 14.68 269.083 14.14 270.463 14.14C271.683 14.14 272.683 14.52 273.443 15.26ZM281.105 10.5H292.045V12.54H287.725V24.5H285.425V12.54H281.105V10.5ZM292.003 16.64C292.423 15.84 293.003 15.24 293.763 14.8C294.523 14.36 295.383 14.14 296.363 14.14C297.343 14.14 298.203 14.34 298.963 14.74C299.723 15.14 300.303 15.72 300.743 16.44C301.183 17.18 301.403 18.04 301.423 19.02C301.423 19.3 301.403 19.56 301.363 19.84H293.643V19.96C293.683 20.86 293.963 21.56 294.483 22.08C294.983 22.6 295.663 22.86 296.503 22.86C297.163 22.86 297.723 22.72 298.183 22.4C298.623 22.08 298.923 21.64 299.083 21.06H301.243C301.043 22.1 300.543 22.96 299.723 23.62C298.903 24.3 297.883 24.62 296.663 24.62C295.583 24.62 294.663 24.42 293.863 23.98C293.063 23.54 292.463 22.94 292.023 22.14C291.583 21.36 291.383 20.44 291.383 19.4C291.383 18.36 291.583 17.44 292.003 16.64ZM299.223 18.26C299.123 17.52 298.823 16.94 298.323 16.52C297.823 16.1 297.203 15.88 296.443 15.88C295.723 15.88 295.123 16.1 294.603 16.54C294.083 16.98 293.803 17.54 293.723 18.26H299.223ZM311.069 23.62C310.229 24.3 309.169 24.62 307.889 24.62C306.869 24.62 305.969 24.42 305.209 23.98C304.429 23.54 303.829 22.92 303.409 22.12C302.989 21.32 302.789 20.4 302.789 19.36C302.789 18.32 302.989 17.42 303.429 16.62C303.849 15.84 304.449 15.24 305.229 14.8C306.009 14.36 306.909 14.14 307.949 14.14C309.229 14.14 310.269 14.48 311.089 15.16C311.889 15.84 312.409 16.74 312.609 17.9H310.389C310.229 17.32 309.949 16.86 309.509 16.5C309.069 16.16 308.529 15.98 307.889 15.98C307.009 15.98 306.309 16.3 305.789 16.92C305.269 17.56 305.009 18.36 305.009 19.36C305.009 20.38 305.269 21.2 305.789 21.84C306.309 22.48 307.009 22.78 307.889 22.78C308.549 22.78 309.109 22.62 309.549 22.26C309.989 21.9 310.269 21.42 310.409 20.82H312.609C312.409 22.02 311.889 22.94 311.069 23.62ZM322.701 15.26C323.461 16.02 323.861 17.22 323.861 18.86V24.5H321.701V18.98C321.701 18.02 321.481 17.28 321.061 16.76C320.641 16.26 320.041 16 319.241 16C318.381 16 317.701 16.3 317.221 16.9C316.741 17.5 316.501 18.3 316.501 19.32V24.5H314.341V10.5H316.501V15.74C317.261 14.68 318.341 14.14 319.721 14.14C320.941 14.14 321.941 14.52 322.701 15.26ZM334.186 15.26C334.946 16.02 335.346 17.22 335.346 18.86V24.5H333.166V18.98C333.166 18.02 332.946 17.28 332.546 16.76C332.126 16.26 331.526 16 330.726 16C329.866 16 329.186 16.3 328.706 16.9C328.226 17.5 327.986 18.3 327.986 19.34V24.5H325.826V14.26H327.706L327.946 15.6C328.706 14.64 329.806 14.14 331.226 14.14C332.426 14.14 333.426 14.52 334.186 15.26ZM339.41 23.98C338.61 23.54 338.01 22.94 337.57 22.14C337.13 21.34 336.93 20.42 336.93 19.38C336.93 18.36 337.13 17.46 337.57 16.66C338.01 15.86 338.61 15.24 339.41 14.8C340.21 14.36 341.11 14.14 342.15 14.14C343.17 14.14 344.07 14.36 344.87 14.8C345.67 15.24 346.27 15.86 346.71 16.66C347.15 17.46 347.37 18.36 347.37 19.38C347.37 20.42 347.15 21.34 346.71 22.14C346.27 22.94 345.67 23.54 344.87 23.98C344.07 24.42 343.17 24.62 342.15 24.62C341.11 24.62 340.21 24.42 339.41 23.98ZM344.33 21.84C344.89 21.2 345.17 20.38 345.17 19.38C345.17 18.38 344.89 17.58 344.33 16.94C343.77 16.3 343.05 15.98 342.15 15.98C341.23 15.98 340.51 16.3 339.97 16.94C339.41 17.58 339.15 18.38 339.15 19.38C339.15 20.38 339.41 21.2 339.97 21.84C340.51 22.48 341.23 22.78 342.15 22.78C343.05 22.78 343.77 22.48 344.33 21.84ZM349.107 10.5H351.267V24.5H349.107V10.5ZM355.484 23.98C354.684 23.54 354.084 22.94 353.644 22.14C353.204 21.34 353.004 20.42 353.004 19.38C353.004 18.36 353.204 17.46 353.644 16.66C354.084 15.86 354.684 15.24 355.484 14.8C356.284 14.36 357.184 14.14 358.224 14.14C359.244 14.14 360.144 14.36 360.944 14.8C361.744 15.24 362.344 15.86 362.784 16.66C363.224 17.46 363.444 18.36 363.444 19.38C363.444 20.42 363.224 21.34 362.784 22.14C362.344 22.94 361.744 23.54 360.944 23.98C360.144 24.42 359.244 24.62 358.224 24.62C357.184 24.62 356.284 24.42 355.484 23.98ZM360.404 21.84C360.964 21.2 361.244 20.38 361.244 19.38C361.244 18.38 360.964 17.58 360.404 16.94C359.844 16.3 359.124 15.98 358.224 15.98C357.304 15.98 356.584 16.3 356.044 16.94C355.484 17.58 355.224 18.38 355.224 19.38C355.224 20.38 355.484 21.2 356.044 21.84C356.584 22.48 357.304 22.78 358.224 22.78C359.124 22.78 359.844 22.48 360.404 21.84ZM375.121 14.26V24.08C375.121 25.52 374.681 26.64 373.841 27.44C372.981 28.24 371.661 28.62 369.881 28.62C368.481 28.62 367.361 28.32 366.501 27.7C365.621 27.08 365.141 26.2 365.061 25.06H367.261C367.381 25.64 367.701 26.08 368.181 26.4C368.661 26.72 369.281 26.86 370.041 26.86C372.001 26.86 372.981 25.92 372.981 24V22.86C372.221 23.98 371.121 24.54 369.641 24.54C368.701 24.54 367.861 24.34 367.141 23.92C366.401 23.5 365.821 22.9 365.421 22.12C365.001 21.34 364.801 20.42 364.801 19.34C364.801 18.32 365.001 17.42 365.421 16.62C365.841 15.84 366.421 15.24 367.161 14.8C367.881 14.36 368.721 14.14 369.641 14.14C370.401 14.14 371.081 14.3 371.641 14.6C372.201 14.92 372.641 15.34 373.001 15.86L373.241 14.26H375.121ZM372.161 21.8C372.701 21.18 372.981 20.38 372.981 19.38C372.981 18.38 372.701 17.56 372.161 16.92C371.601 16.28 370.881 15.96 370.001 15.96C369.101 15.96 368.381 16.28 367.841 16.9C367.281 17.54 367.021 18.34 367.021 19.34C367.021 20.34 367.281 21.16 367.841 21.78C368.381 22.42 369.101 22.72 370.001 22.72C370.881 22.72 371.601 22.42 372.161 21.8ZM378.512 14.26L381.372 22.16L384.152 14.26H386.452L381.812 26.1C381.572 26.72 381.352 27.2 381.152 27.52C380.952 27.84 380.692 28.1 380.412 28.26C380.112 28.42 379.712 28.5 379.232 28.5H376.912V26.6H378.432C378.832 26.6 379.132 26.54 379.292 26.42C379.452 26.3 379.612 26 379.792 25.56L380.212 24.58L376.212 14.26H378.512Z" fill="white"/>
<path d="M12 71.5V80.5" stroke="#E5FF43" stroke-width="1.5" stroke-linecap="round"/>
<path d="M14 69.5C14 70.6046 13.1046 71.5 12 71.5C10.8954 71.5 10 70.6046 10 69.5C10 68.3954 10.8954 67.5 12 67.5C13.1046 67.5 14 68.3954 14 69.5Z" stroke="#E5FF43" stroke-width="1.5"/>
<path opacity="0.4" d="M16.9588 66.5C17.6186 67.3696 18 68.398 18 69.5C18 70.602 17.6186 71.6304 16.9588 72.5M7.04117 66.5C6.38143 67.3696 6 68.398 6 69.5C6 70.602 6.38143 71.6304 7.04117 72.5" stroke="#E5FF43" stroke-width="1.5" stroke-linecap="round" stroke-linejoin="round"/>
<path opacity="0.4" d="M20.3159 64.5C21.3796 65.9301 22 67.6498 22 69.5C22 71.3502 21.3796 73.0699 20.3159 74.5M3.68409 64.5C2.62036 65.9301 2 67.6498 2 69.5C2 71.3502 2.62036 73.0699 3.68409 74.5" stroke="#E5FF43" stroke-width="1.5" stroke-linecap="round" stroke-linejoin="round"/>
<path d="M33.28 66.5H37.74C39.16 66.5 40.4 66.8 41.48 67.38C42.54 67.98 43.36 68.8 43.94 69.84C44.5 70.9 44.8 72.12 44.8 73.5C44.8 74.88 44.5 76.1 43.94 77.16C43.36 78.22 42.54 79.04 41.48 79.62C40.4 80.22 39.16 80.5 37.74 80.5H33.28V66.5ZM37.74 78.5C39.24 78.5 40.4 78.06 41.22 77.16C42.02 76.26 42.44 75.04 42.44 73.5C42.44 71.98 42.02 70.76 41.22 69.86C40.4 68.96 39.24 68.5 37.74 68.5H35.58V78.5H37.74ZM46.8352 72.64C47.2552 71.84 47.8352 71.24 48.5952 70.8C49.3552 70.36 50.2152 70.14 51.1952 70.14C52.1752 70.14 53.0352 70.34 53.7952 70.74C54.5552 71.14 55.1352 71.72 55.5752 72.44C56.0152 73.18 56.2352 74.04 56.2552 75.02C56.2552 75.3 56.2352 75.56 56.1952 75.84H48.4752V75.96C48.5152 76.86 48.7952 77.56 49.3152 78.08C49.8152 78.6 50.4952 78.86 51.3352 78.86C51.9952 78.86 52.5552 78.72 53.0152 78.4C53.4552 78.08 53.7552 77.64 53.9152 77.06H56.0752C55.8752 78.1 55.3752 78.96 54.5552 79.62C53.7352 80.3 52.7152 80.62 51.4952 80.62C50.4152 80.62 49.4952 80.42 48.6952 79.98C47.8952 79.54 47.2952 78.94 46.8552 78.14C46.4152 77.36 46.2152 76.44 46.2152 75.4C46.2152 74.36 46.4152 73.44 46.8352 72.64ZM54.0552 74.26C53.9552 73.52 53.6552 72.94 53.1552 72.52C52.6552 72.1 52.0352 71.88 51.2752 71.88C50.5552 71.88 49.9552 72.1 49.4352 72.54C48.9152 72.98 48.6352 73.54 48.5552 74.26H54.0552ZM65.9014 79.62C65.0614 80.3 64.0014 80.62 62.7214 80.62C61.7014 80.62 60.8014 80.42 60.0414 79.98C59.2614 79.54 58.6614 78.92 58.2414 78.12C57.8214 77.32 57.6214 76.4 57.6214 75.36C57.6214 74.32 57.8214 73.42 58.2614 72.62C58.6814 71.84 59.2814 71.24 60.0614 70.8C60.8414 70.36 61.7414 70.14 62.7814 70.14C64.0614 70.14 65.1014 70.48 65.9214 71.16C66.7214 71.84 67.2414 72.74 67.4414 73.9H65.2214C65.0614 73.32 64.7814 72.86 64.3414 72.5C63.9014 72.16 63.3614 71.98 62.7214 71.98C61.8414 71.98 61.1414 72.3 60.6214 72.92C60.1014 73.56 59.8414 74.36 59.8414 75.36C59.8414 76.38 60.1014 77.2 60.6214 77.84C61.1414 78.48 61.8414 78.78 62.7214 78.78C63.3814 78.78 63.9414 78.62 64.3814 78.26C64.8214 77.9 65.1014 77.42 65.2414 76.82H67.4414C67.2414 78.02 66.7214 78.94 65.9014 79.62ZM69.2375 72.64C69.6575 71.84 70.2375 71.24 70.9975 70.8C71.7575 70.36 72.6175 70.14 73.5975 70.14C74.5775 70.14 75.4375 70.34 76.1975 70.74C76.9575 71.14 77.5375 71.72 77.9775 72.44C78.4175 73.18 78.6375 74.04 78.6575 75.02C78.6575 75.3 78.6375 75.56 78.5975 75.84H70.8775V75.96C70.9175 76.86 71.1975 77.56 71.7175 78.08C72.2175 78.6 72.8975 78.86 73.7375 78.86C74.3975 78.86 74.9575 78.72 75.4175 78.4C75.8575 78.08 76.1575 77.64 76.3175 77.06H78.4775C78.2775 78.1 77.7775 78.96 76.9575 79.62C76.1375 80.3 75.1175 80.62 73.8975 80.62C72.8175 80.62 71.8975 80.42 71.0975 79.98C70.2975 79.54 69.6975 78.94 69.2575 78.14C68.8175 77.36 68.6175 76.44 68.6175 75.4C68.6175 74.36 68.8175 73.44 69.2375 72.64ZM76.4575 74.26C76.3575 73.52 76.0575 72.94 75.5575 72.52C75.0575 72.1 74.4375 71.88 73.6775 71.88C72.9575 71.88 72.3575 72.1 71.8375 72.54C71.3175 72.98 71.0375 73.54 70.9575 74.26H76.4575ZM88.7638 71.26C89.5238 72.02 89.9238 73.22 89.9238 74.86V80.5H87.7438V74.98C87.7438 74.02 87.5238 73.28 87.1238 72.76C86.7038 72.26 86.1038 72 85.3038 72C84.4438 72 83.7638 72.3 83.2838 72.9C82.8038 73.5 82.5638 74.3 82.5638 75.34V80.5H80.4038V70.26H82.2837L82.5238 71.6C83.2838 70.64 84.3838 70.14 85.8038 70.14C87.0038 70.14 88.0038 70.52 88.7638 71.26ZM92.5481 72.16H90.7681V70.26H92.5481V67.4H94.7281V70.26H97.1881V72.16H94.7281V77.5C94.7281 77.9 94.8081 78.2 94.9681 78.36C95.1281 78.52 95.3881 78.6 95.7881 78.6H97.4281V80.5H95.3481C94.3681 80.5 93.6481 80.28 93.2081 79.82C92.7681 79.38 92.5481 78.68 92.5481 77.72V72.16ZM104.247 70.26V72.28H103.287C102.387 72.28 101.747 72.58 101.347 73.16C100.947 73.74 100.747 74.48 100.747 75.36V80.5H98.5873V70.26H100.507L100.747 71.8C101.027 71.32 101.407 70.96 101.887 70.68C102.347 70.4 102.967 70.26 103.767 70.26H104.247ZM115.028 78.62V80.5H113.888C113.208 80.5 112.728 80.36 112.448 80.08C112.148 79.8 112.008 79.4 112.008 78.86C111.228 80.04 110.108 80.62 108.628 80.62C107.468 80.62 106.548 80.36 105.868 79.82C105.168 79.3 104.828 78.56 104.828 77.62C104.828 76.58 105.188 75.76 105.948 75.2C106.688 74.64 107.768 74.34 109.208 74.34H111.788V73.72C111.788 73.16 111.588 72.7 111.188 72.38C110.788 72.06 110.228 71.88 109.528 71.88C108.888 71.88 108.368 72.02 107.968 72.3C107.568 72.58 107.328 72.94 107.248 73.38H105.128C105.228 72.36 105.688 71.56 106.488 71C107.288 70.44 108.328 70.14 109.628 70.14C110.988 70.14 112.048 70.46 112.808 71.1C113.548 71.74 113.928 72.66 113.928 73.86V77.9C113.928 78.38 114.148 78.62 114.608 78.62H115.028ZM111.788 75.94H109.108C108.428 75.94 107.928 76.08 107.568 76.34C107.208 76.6 107.028 76.98 107.028 77.48C107.028 77.92 107.188 78.28 107.528 78.54C107.868 78.82 108.328 78.94 108.928 78.94C109.808 78.94 110.508 78.7 111.008 78.22C111.508 77.74 111.768 77.1 111.788 76.3V75.94ZM116.205 66.5H118.365V80.5H116.205V66.5ZM122.502 66.54C122.742 66.78 122.882 67.1 122.882 67.46C122.882 67.84 122.742 68.16 122.502 68.4C122.242 68.64 121.922 68.76 121.562 68.76C121.182 68.76 120.862 68.64 120.622 68.4C120.362 68.16 120.242 67.84 120.242 67.46C120.242 67.1 120.362 66.78 120.622 66.54C120.862 66.3 121.182 66.16 121.562 66.16C121.922 66.16 122.242 66.3 122.502 66.54ZM120.482 70.26H122.642V80.5H120.482V70.26ZM124.379 70.26H132.759V71.8L127.039 78.6H133.019V80.5H124.139V78.96L129.859 72.16H124.379V70.26ZM134.296 72.64C134.716 71.84 135.296 71.24 136.056 70.8C136.816 70.36 137.676 70.14 138.656 70.14C139.636 70.14 140.496 70.34 141.256 70.74C142.016 71.14 142.596 71.72 143.036 72.44C143.476 73.18 143.696 74.04 143.716 75.02C143.716 75.3 143.696 75.56 143.656 75.84H135.936V75.96C135.976 76.86 136.256 77.56 136.776 78.08C137.276 78.6 137.956 78.86 138.796 78.86C139.456 78.86 140.016 78.72 140.476 78.4C140.916 78.08 141.216 77.64 141.376 77.06H143.536C143.336 78.1 142.836 78.96 142.016 79.62C141.196 80.3 140.176 80.62 138.956 80.62C137.876 80.62 136.956 80.42 136.156 79.98C135.356 79.54 134.756 78.94 134.316 78.14C133.876 77.36 133.676 76.44 133.676 75.4C133.676 74.36 133.876 73.44 134.296 72.64ZM141.516 74.26C141.416 73.52 141.116 72.94 140.616 72.52C140.116 72.1 139.496 71.88 138.736 71.88C138.016 71.88 137.416 72.1 136.896 72.54C136.376 72.98 136.096 73.54 136.016 74.26H141.516ZM155.402 66.5V80.5H153.522L153.262 78.96C152.442 80.08 151.322 80.62 149.922 80.62C148.982 80.62 148.142 80.42 147.422 80C146.682 79.58 146.102 78.98 145.702 78.18C145.282 77.38 145.082 76.46 145.082 75.38C145.082 74.34 145.282 73.44 145.702 72.64C146.122 71.84 146.702 71.24 147.442 70.8C148.162 70.36 149.002 70.14 149.922 70.14C150.662 70.14 151.322 70.28 151.882 70.56C152.442 70.84 152.882 71.2 153.242 71.68V66.5H155.402ZM152.442 77.86C152.982 77.24 153.262 76.42 153.262 75.42C153.262 74.4 152.982 73.58 152.442 72.94C151.882 72.3 151.162 71.98 150.282 71.98C149.382 71.98 148.662 72.3 148.122 72.94C147.562 73.58 147.302 74.38 147.302 75.38C147.302 76.4 147.562 77.22 148.122 77.86C148.662 78.5 149.382 78.8 150.282 78.8C151.162 78.8 151.882 78.5 152.442 77.86ZM162.85 80.5V66.5H164.95L171.77 76.42V66.5H174.03V80.5H171.93L165.11 70.58V80.5H162.85ZM176.601 72.64C177.021 71.84 177.601 71.24 178.361 70.8C179.121 70.36 179.981 70.14 180.961 70.14C181.941 70.14 182.801 70.34 183.561 70.74C184.321 71.14 184.901 71.72 185.341 72.44C185.781 73.18 186.001 74.04 186.021 75.02C186.021 75.3 186.001 75.56 185.961 75.84H178.241V75.96C178.281 76.86 178.561 77.56 179.081 78.08C179.581 78.6 180.261 78.86 181.101 78.86C181.761 78.86 182.321 78.72 182.781 78.4C183.221 78.08 183.521 77.64 183.681 77.06H185.841C185.641 78.1 185.141 78.96 184.321 79.62C183.501 80.3 182.481 80.62 181.261 80.62C180.181 80.62 179.261 80.42 178.461 79.98C177.661 79.54 177.061 78.94 176.621 78.14C176.181 77.36 175.981 76.44 175.981 75.4C175.981 74.36 176.181 73.44 176.601 72.64ZM183.821 74.26C183.721 73.52 183.421 72.94 182.921 72.52C182.421 72.1 181.801 71.88 181.041 71.88C180.321 71.88 179.721 72.1 179.201 72.54C178.681 72.98 178.401 73.54 178.321 74.26H183.821ZM188.349 72.16H186.569V70.26H188.349V67.4H190.529V70.26H192.989V72.16H190.529V77.5C190.529 77.9 190.609 78.2 190.769 78.36C190.929 78.52 191.189 78.6 191.589 78.6H193.229V80.5H191.149C190.169 80.5 189.449 80.28 189.009 79.82C188.569 79.38 188.349 78.68 188.349 77.72V72.16ZM193.408 70.26H195.688L198.028 78.1L200.368 70.26H202.348L204.588 78.1L207.008 70.26H209.208L205.808 80.5H203.488L201.328 73.54L199.088 80.5L196.748 80.52L193.408 70.26ZM212.152 79.98C211.352 79.54 210.752 78.94 210.312 78.14C209.872 77.34 209.672 76.42 209.672 75.38C209.672 74.36 209.872 73.46 210.312 72.66C210.752 71.86 211.352 71.24 212.152 70.8C212.952 70.36 213.852 70.14 214.892 70.14C215.912 70.14 216.812 70.36 217.612 70.8C218.412 71.24 219.012 71.86 219.452 72.66C219.892 73.46 220.112 74.36 220.112 75.38C220.112 76.42 219.892 77.34 219.452 78.14C219.012 78.94 218.412 79.54 217.612 79.98C216.812 80.42 215.912 80.62 214.892 80.62C213.852 80.62 212.952 80.42 212.152 79.98ZM217.072 77.84C217.632 77.2 217.912 76.38 217.912 75.38C217.912 74.38 217.632 73.58 217.072 72.94C216.512 72.3 215.792 71.98 214.892 71.98C213.972 71.98 213.252 72.3 212.712 72.94C212.152 73.58 211.892 74.38 211.892 75.38C211.892 76.38 212.152 77.2 212.712 77.84C213.252 78.48 213.972 78.78 214.892 78.78C215.792 78.78 216.512 78.48 217.072 77.84ZM227.509 70.26V72.28H226.549C225.649 72.28 225.009 72.58 224.609 73.16C224.209 73.74 224.009 74.48 224.009 75.36V80.5H221.849V70.26H223.769L224.009 71.8C224.289 71.32 224.669 70.96 225.149 70.68C225.609 70.4 226.229 70.26 227.029 70.26H227.509ZM228.88 66.5H231.04V75.26L235.72 70.26H238.22L234.4 74.38L238.46 80.5H235.9L232.86 75.96L231.04 77.88V80.5H228.88V66.5ZM243.84 80.5L249.08 66.5H251.82L257.04 80.5H254.58L253.26 77.04H247.52L246.22 80.5H243.84ZM248.16 75.08H252.62L250.38 68.98L248.16 75.08ZM263.915 70.26V72.28H262.955C262.055 72.28 261.415 72.58 261.015 73.16C260.615 73.74 260.415 74.48 260.415 75.36V80.5H258.255V70.26H260.175L260.415 71.8C260.695 71.32 261.075 70.96 261.555 70.68C262.015 70.4 262.635 70.26 263.435 70.26H263.915ZM272.698 79.62C271.858 80.3 270.798 80.62 269.518 80.62C268.498 80.62 267.598 80.42 266.838 79.98C266.058 79.54 265.458 78.92 265.038 78.12C264.618 77.32 264.418 76.4 264.418 75.36C264.418 74.32 264.618 73.42 265.058 72.62C265.478 71.84 266.078 71.24 266.858 70.8C267.638 70.36 268.538 70.14 269.578 70.14C270.858 70.14 271.898 70.48 272.718 71.16C273.518 71.84 274.038 72.74 274.238 73.9H272.018C271.858 73.32 271.578 72.86 271.138 72.5C270.698 72.16 270.158 71.98 269.518 71.98C268.638 71.98 267.938 72.3 267.418 72.92C266.898 73.56 266.638 74.36 266.638 75.36C266.638 76.38 266.898 77.2 267.418 77.84C267.938 78.48 268.638 78.78 269.518 78.78C270.178 78.78 270.738 78.62 271.178 78.26C271.618 77.9 271.898 77.42 272.038 76.82H274.238C274.038 78.02 273.518 78.94 272.698 79.62ZM284.33 71.26C285.09 72.02 285.49 73.22 285.49 74.86V80.5H283.33V74.98C283.33 74.02 283.11 73.28 282.69 72.76C282.27 72.26 281.67 72 280.87 72C280.01 72 279.33 72.3 278.85 72.9C278.37 73.5 278.13 74.3 278.13 75.32V80.5H275.97V66.5H278.13V71.74C278.89 70.68 279.97 70.14 281.35 70.14C282.57 70.14 283.57 70.52 284.33 71.26ZM289.475 66.54C289.715 66.78 289.855 67.1 289.855 67.46C289.855 67.84 289.715 68.16 289.475 68.4C289.215 68.64 288.895 68.76 288.535 68.76C288.155 68.76 287.835 68.64 287.595 68.4C287.335 68.16 287.215 67.84 287.215 67.46C287.215 67.1 287.335 66.78 287.595 66.54C287.835 66.3 288.155 66.16 288.535 66.16C288.895 66.16 289.215 66.3 289.475 66.54ZM287.455 70.26H289.615V80.5H287.455V70.26ZM292.392 72.16H290.612V70.26H292.392V67.4H294.572V70.26H297.032V72.16H294.572V77.5C294.572 77.9 294.652 78.2 294.812 78.36C294.972 78.52 295.232 78.6 295.632 78.6H297.272V80.5H295.192C294.212 80.5 293.492 80.28 293.052 79.82C292.612 79.38 292.392 78.68 292.392 77.72V72.16ZM298.456 72.64C298.876 71.84 299.456 71.24 300.216 70.8C300.976 70.36 301.836 70.14 302.816 70.14C303.796 70.14 304.656 70.34 305.416 70.74C306.176 71.14 306.756 71.72 307.196 72.44C307.636 73.18 307.856 74.04 307.876 75.02C307.876 75.3 307.856 75.56 307.816 75.84H300.096V75.96C300.136 76.86 300.416 77.56 300.936 78.08C301.436 78.6 302.116 78.86 302.956 78.86C303.616 78.86 304.176 78.72 304.636 78.4C305.076 78.08 305.376 77.64 305.536 77.06H307.696C307.496 78.1 306.996 78.96 306.176 79.62C305.356 80.3 304.336 80.62 303.116 80.62C302.036 80.62 301.116 80.42 300.316 79.98C299.516 79.54 298.916 78.94 298.476 78.14C298.036 77.36 297.836 76.44 297.836 75.4C297.836 74.36 298.036 73.44 298.456 72.64ZM305.676 74.26C305.576 73.52 305.276 72.94 304.776 72.52C304.276 72.1 303.656 71.88 302.896 71.88C302.176 71.88 301.576 72.1 301.056 72.54C300.536 72.98 300.256 73.54 300.176 74.26H305.676ZM317.523 79.62C316.683 80.3 315.623 80.62 314.343 80.62C313.323 80.62 312.423 80.42 311.663 79.98C310.883 79.54 310.283 78.92 309.863 78.12C309.443 77.32 309.243 76.4 309.243 75.36C309.243 74.32 309.443 73.42 309.882 72.62C310.303 71.84 310.903 71.24 311.683 70.8C312.463 70.36 313.363 70.14 314.403 70.14C315.683 70.14 316.723 70.48 317.543 71.16C318.343 71.84 318.863 72.74 319.063 73.9H316.843C316.683 73.32 316.403 72.86 315.963 72.5C315.523 72.16 314.983 71.98 314.343 71.98C313.463 71.98 312.763 72.3 312.243 72.92C311.723 73.56 311.463 74.36 311.463 75.36C311.463 76.38 311.723 77.2 312.243 77.84C312.763 78.48 313.463 78.78 314.343 78.78C315.003 78.78 315.563 78.62 316.003 78.26C316.443 77.9 316.723 77.42 316.863 76.82H319.063C318.863 78.02 318.343 78.94 317.523 79.62ZM321.454 72.16H319.674V70.26H321.454V67.4H323.634V70.26H326.094V72.16H323.634V77.5C323.634 77.9 323.714 78.2 323.874 78.36C324.034 78.52 324.294 78.6 324.694 78.6H326.334V80.5H324.254C323.274 80.5 322.554 80.28 322.114 79.82C321.674 79.38 321.454 78.68 321.454 77.72V72.16ZM336.674 70.26V80.5H334.774L334.534 79.2C333.754 80.16 332.694 80.62 331.374 80.62C330.174 80.62 329.194 80.26 328.454 79.5C327.694 78.76 327.334 77.56 327.334 75.9V70.26H329.494V75.68C329.494 76.68 329.694 77.44 330.094 77.96C330.494 78.48 331.074 78.74 331.874 78.74C332.694 78.74 333.334 78.44 333.814 77.84C334.274 77.24 334.514 76.4 334.514 75.34V70.26H336.674ZM344.462 70.26V72.28H343.502C342.602 72.28 341.962 72.58 341.562 73.16C341.162 73.74 340.962 74.48 340.962 75.36V80.5H338.802V70.26H340.722L340.962 71.8C341.242 71.32 341.622 70.96 342.102 70.68C342.562 70.4 343.182 70.26 343.982 70.26H344.462ZM345.585 72.64C346.005 71.84 346.585 71.24 347.345 70.8C348.105 70.36 348.965 70.14 349.945 70.14C350.925 70.14 351.785 70.34 352.545 70.74C353.305 71.14 353.885 71.72 354.325 72.44C354.765 73.18 354.985 74.04 355.005 75.02C355.005 75.3 354.985 75.56 354.945 75.84H347.225V75.96C347.265 76.86 347.545 77.56 348.065 78.08C348.565 78.6 349.245 78.86 350.085 78.86C350.745 78.86 351.305 78.72 351.765 78.4C352.205 78.08 352.505 77.64 352.665 77.06H354.825C354.625 78.1 354.125 78.96 353.305 79.62C352.485 80.3 351.465 80.62 350.245 80.62C349.165 80.62 348.245 80.42 347.445 79.98C346.645 79.54 346.045 78.94 345.605 78.14C345.165 77.36 344.965 76.44 344.965 75.4C344.965 74.36 345.165 73.44 345.585 72.64ZM352.805 74.26C352.705 73.52 352.405 72.94 351.905 72.52C351.405 72.1 350.785 71.88 350.025 71.88C349.305 71.88 348.705 72.1 348.185 72.54C347.665 72.98 347.385 73.54 347.305 74.26H352.805Z" fill="white"/>
</svg>
